<svg xmlns:xlink="http://www.w3.org/1999/xlink" version="1.1" class="highcharts-root" style="font-family:&quot;lucida grande&quot;, &quot;lucida sans unicode&quot;, arial, helvetica, sans-serif;font-size:12px;" xmlns="http://www.w3.org/2000/svg" width="600" height="400"><desc>Created with Highcharts 5.0.6</desc><defs><clipPath id="highcharts-43finda-38"><rect x="0" y="0" width="527" height="298" fill="none"></rect></clipPath></defs><rect fill="#ffffff" class="highcharts-background" x="0" y="0" width="600" height="400" rx="0" ry="0"></rect><rect fill="none" class="highcharts-plot-background" x="63" y="47" width="527" height="298"></rect><g class="highcharts-plot-bands-0"><path fill="#c3e6c3" class="highcharts-plot-band " d="M 63 178.5 L 590 178.5 590 47.5 63 47.5 z"></path><path fill="#e6dcc3" class="highcharts-plot-band " d="M 63 226.5 L 590 226.5 590 178.5 63 178.5 z"></path><path fill="#e6c3c3" class="highcharts-plot-band " d="M 63 345.5 L 590 345.5 590 226.5 63 226.5 z"></path></g><g class="highcharts-grid highcharts-xaxis-grid "><path fill="none" class="highcharts-grid-line" d="M 65.5 47 L 65.5 345" opacity="1"></path><path fill="none" class="highcharts-grid-line" d="M 169.5 47 L 169.5 345" opacity="1"></path><path fill="none" class="highcharts-grid-line" d="M 273.5 47 L 273.5 345" opacity="1"></path><path fill="none" class="highcharts-grid-line" d="M 376.5 47 L 376.5 345" opacity="1"></path><path fill="none" class="highcharts-grid-line" d="M 480.5 47 L 480.5 345" opacity="1"></path><path fill="none" class="highcharts-grid-line" d="M 584.5 47 L 584.5 345" opacity="1"></path></g><g class="highcharts-grid highcharts-yaxis-grid "><path fill="none" stroke="#e6e6e6" stroke-width="1" class="highcharts-grid-line" d="M 63 345.5 L 590 345.5" opacity="1"></path><path fill="none" stroke="#e6e6e6" stroke-width="1" class="highcharts-grid-line" d="M 63 285.5 L 590 285.5" opacity="1"></path><path fill="none" stroke="#e6e6e6" stroke-width="1" class="highcharts-grid-line" d="M 63 226.5 L 590 226.5" opacity="1"></path><path fill="none" stroke="#e6e6e6" stroke-width="1" class="highcharts-grid-line" d="M 63 166.5 L 590 166.5" opacity="1"></path><path fill="none" stroke="#e6e6e6" stroke-width="1" class="highcharts-grid-line" d="M 63 107.5 L 590 107.5" opacity="1"></path><path fill="none" stroke="#e6e6e6" stroke-width="1" class="highcharts-grid-line" d="M 63 46.5 L 590 46.5" opacity="1"></path></g><rect fill="none" class="highcharts-plot-border" x="63" y="47" width="527" height="298"></rect><g class="highcharts-axis highcharts-xaxis "><path fill="none" class="highcharts-tick" stroke="#ccd6eb" stroke-width="1" d="M 65.5 345 L 65.5 355" opacity="1"></path><path fill="none" class="highcharts-tick" stroke="#ccd6eb" stroke-width="1" d="M 169.5 345 L 169.5 355" opacity="1"></path><path fill="none" class="highcharts-tick" stroke="#ccd6eb" stroke-width="1" d="M 273.5 345 L 273.5 355" opacity="1"></path><path fill="none" class="highcharts-tick" stroke="#ccd6eb" stroke-width="1" d="M 376.5 345 L 376.5 355" opacity="1"></path><path fill="none" class="highcharts-tick" stroke="#ccd6eb" stroke-width="1" d="M 480.5 345 L 480.5 355" opacity="1"></path><path fill="none" class="highcharts-tick" stroke="#ccd6eb" stroke-width="1" d="M 584.5 345 L 584.5 355" opacity="1"></path><text x="326.5" text-anchor="middle" transform="translate(0,0)" class="highcharts-axis-title" style="color:#666666;fill:#666666;" y="383"><tspan>Position (bp)</tspan></text><path fill="none" class="highcharts-axis-line" stroke="#ccd6eb" stroke-width="1" d="M 63 345.5 L 590 345.5"></path></g><g class="highcharts-axis highcharts-yaxis "><text x="24.0859375" text-anchor="middle" transform="translate(0,0) rotate(270 24.0859375 196)" class="highcharts-axis-title" style="color:#666666;fill:#666666;" y="196"><tspan>Phred Score</tspan></text><path fill="none" class="highcharts-axis-line" d="M 63 47 L 63 345"></path></g><g class="highcharts-series-group"><g class="highcharts-series highcharts-series-0 highcharts-line-series highcharts-color-undefined " transform="translate(63,47) scale(1 1)" width="298" height="527" clip-path="url(#highcharts-43finda-38)"><path fill="none" d="M 5.1666666666667 104.55059175283421 L 7.2416331994645 99.91795903112711 L 9.3165997322624 99.3617248927726 L 11.39156626506 100.6082663866593 L 13.466532797858 99.80308458951043 L 15.541499330656 100.74552172133335 L 17.616465863454 103.31921835234655 L 19.691432396252 98.46139778248411 L 21.76639892905 106.87205253697343 L 27.991298527443 88.79855857908134 L 38.366131191432 73.99785125202439 L 48.740963855422 74.4653679545819 L 59.115796519411 70.23803093132108 L 69.4906291834 74.61017551478042 L 79.86546184739 70.30317948352874 L 90.240294511379 76.52928936268663 L 100.61512717537 69.42937001904286 L 110.98995983936 75.6795791347061 L 121.36479250335 74.57612685756999 L 131.73962516734 74.0718460908719 L 142.11445783133 79.81921699976866 L 152.48929049531 74.39196711100038 L 162.8641231593 73.50434725658044 L 173.23895582329 73.17122198295039 L 183.61378848728 76.26377347879477 L 193.98862115127 71.49231557778211 L 204.36345381526 71.69168584598415 L 214.73828647925 78.28963676164369 L 225.11311914324 76.63353553186565 L 235.48795180723 78.08680859242915 L 245.86278447122 82.0456597554682 L 256.23761713521 84.05016042285857 L 266.6124497992 83.28505209204647 L 276.98728246319 82.50687586538291 L 287.36211512718 82.6688668600616 L 297.73694779116 85.9765082845397 L 308.11178045515 83.85580089599736 L 318.48661311914 85.18620094364815 L 328.86144578313 84.03758276362922 L 339.23627844712 84.00719962965604 L 349.61111111111 90.1191603162168 L 359.9859437751 88.1412943522541 L 370.36077643909 88.7921360301973 L 380.73560910308 91.87214144291715 L 391.11044176707 93.26230581867387 L 401.48527443106 92.43208261519837 L 411.86010709505 93.67092301118154 L 422.23493975904 91.01449740047008 L 432.60977242303 95.13513638629732 L 442.98460508701 93.88748821309022 L 453.359437751 95.14226750231464 L 463.73427041499 95.39516743821667 L 474.10910307898 96.00982660026335 L 484.48393574297 94.18744147288197 L 494.85876840696 94.47271749581569 L 505.23360107095 95.98594750899184 L 515.60843373494 97.43440957031169 L 521.83333333333 101.29142380103681" class="highcharts-graph" stroke="#5cb85c" stroke-width="2" stroke-linejoin="round" stroke-linecap="round"></path></g><g class="highcharts-markers highcharts-series-0 highcharts-line-series highcharts-color-undefined " transform="translate(63,47) scale(1 1)" width="298" height="527" clip-path="none"></g><g class="highcharts-series highcharts-series-1 highcharts-line-series highcharts-color-undefined " transform="translate(63,47) scale(1 1)" width="298" height="527" clip-path="url(#highcharts-43finda-38)"><path fill="none" d="M 5.1666666666667 106.48171279075976 L 7.2416331994645 107.30312338713983 L 9.3165997322624 105.19295520475535 L 11.39156626506 105.78238943565466 L 13.466532797858 104.47814554450161 L 15.541499330656 82.80389471248819 L 17.616465863454 89.83881400274075 L 19.691432396252 91.80854473295483 L 21.76639892905 90.29809962804109 L 27.991298527443 91.69014874797557 L 38.366131191432 77.88815960419302 L 48.740963855422 76.94792874050083 L 59.115796519411 77.34202338536008 L 69.4906291834 77.01602605492181 L 79.86546184739 78.31708782857854 L 90.240294511379 78.83029973838296 L 100.61512717537 77.77566114364024 L 110.98995983936 77.35630048586023 L 121.36479250335 78.74839203402803 L 131.73962516734 79.6183829575184 L 142.11445783133 79.18610290270334 L 152.48929049531 81.66066596664831 L 162.8641231593 77.86047518197512 L 173.23895582329 79.79516019149656 L 183.61378848728 82.76912477531192 L 193.98862115127 74.73474480770258 L 204.36345381526 78.22983416682979 L 214.73828647925 75.22317862926909 L 225.11311914324 79.30942056274361 L 235.48795180723 74.5048049974194 L 245.86278447122 77.3962466674972 L 256.23761713521 77.38964907722155 L 266.6124497992 79.764908861165 L 276.98728246319 74.9400338144477 L 287.36211512718 81.7919177063126 L 297.73694779116 78.67168178825034 L 308.11178045515 83.28372925749858 L 318.48661311914 77.44211527162011 L 328.86144578313 82.23766730354612 L 339.23627844712 81.34159438766429 L 349.61111111111 80.27908393575731 L 359.9859437751 85.4233485986966 L 370.36077643909 87.3259811260283 L 380.73560910308 90.38990206901465 L 391.11044176707 82.91701164488441 L 401.48527443106 90.75593953099127 L 411.86010709505 84.97821719698723 L 422.23493975904 89.78488858816618 L 432.60977242303 93.17143697583731 L 442.98460508701 92.81467110628373 L 453.359437751 95.05410972026849 L 463.73427041499 91.26734851587403 L 474.10910307898 100.52853721476936 L 484.48393574297 93.06149458689464 L 494.85876840696 92.71149316239314 L 505.23360107095 96.34694458689461 L 515.60843373494 90.54324163721168 L 521.83333333333 113.02608906500922" class="highcharts-graph" stroke="#5cb85c" stroke-width="2" stroke-linejoin="round" stroke-linecap="round"></path></g><g class="highcharts-markers highcharts-series-1 highcharts-line-series highcharts-color-undefined " transform="translate(63,47) scale(1 1)" width="298" height="527" clip-path="none"></g><g class="highcharts-series highcharts-series-2 highcharts-line-series highcharts-color-undefined " transform="translate(63,47) scale(1 1)" width="298" height="527" clip-path="url(#highcharts-43finda-38)"><path fill="none" d="M 5.1666666666667 101.44003091640903 L 7.2416331994645 101.55345622119816 L 9.3165997322624 101.38779443504637 L 11.39156626506 102.44130257247855 L 13.466532797858 100.8255352038733 L 15.541499330656 101.86730968908594 L 17.616465863454 103.76677069357757 L 19.691432396252 99.36978008516596 L 21.76639892905 108.04599020008166 L 27.991298527443 88.99704030799745 L 38.366131191432 74.61318194015053 L 48.740963855422 74.69724703960796 L 59.115796519411 70.91694242547979 L 69.4906291834 75.0506646444613 L 79.86546184739 72.45022656477863 L 90.240294511379 77.96339170506911 L 100.61512717537 71.56105909117423 L 110.98995983936 76.54417604853293 L 121.36479250335 78.96980878492678 L 131.73962516734 77.01355690369249 L 142.11445783133 82.24768710260747 L 152.48929049531 76.04746882109322 L 162.8641231593 76.14384121798986 L 173.23895582329 76.34425199790002 L 183.61378848728 80.96802368313595 L 193.98862115127 74.2201828151432 L 204.36345381526 75.29470722743977 L 214.73828647925 81.99582208481596 L 225.11311914324 77.94463524470629 L 235.48795180723 79.77426798110014 L 245.86278447122 85.34203371638571 L 256.23761713521 86.01935227206442 L 266.6124497992 84.1228116432363 L 276.98728246319 85.02068809426586 L 287.36211512718 85.53058916175698 L 297.73694779116 86.10972746893776 L 308.11178045515 87.85610692518847 L 318.48661311914 86.78878102988142 L 328.86144578313 85.87178708200258 L 339.23627844712 86.50084169692727 L 349.61111111111 92.9116464977906 L 359.9859437751 89.2030629858103 L 370.36077643909 90.53522567849384 L 380.73560910308 91.0867327587464 L 391.11044176707 94.170607516297 L 401.48527443106 94.83868795846641 L 411.86010709505 92.83429018098033 L 422.23493975904 94.39506251914077 L 432.60977242303 96.12095338914523 L 442.98460508701 95.90831652326088 L 453.359437751 94.91586396383255 L 463.73427041499 96.7407347819746 L 474.10910307898 95.73533136940355 L 484.48393574297 97.6421663117982 L 494.85876840696 98.01624605512615 L 505.23360107095 99.83730816919396 L 515.60843373494 99.56530467471697 L 521.83333333333 111.02738002769956" class="highcharts-graph" stroke="#5cb85c" stroke-width="2" stroke-linejoin="round" stroke-linecap="round"></path></g><g class="highcharts-markers highcharts-series-2 highcharts-line-series highcharts-color-undefined " transform="translate(63,47) scale(1 1)" width="298" height="527" clip-path="none"></g><g class="highcharts-series highcharts-series-3 highcharts-line-series highcharts-color-undefined " transform="translate(63,47) scale(1 1)" width="298" height="527" clip-path="url(#highcharts-43finda-38)"><path fill="none" d="M 5.1666666666667 113.76558070349412 L 7.2416331994645 108.91567111940734 L 9.3165997322624 105.20279589336755 L 11.39156626506 104.68912267397772 L 13.466532797858 106.82803709969085 L 15.541499330656 83.97540220498163 L 17.616465863454 90.71634194715043 L 19.691432396252 93.47105582453477 L 21.76639892905 92.56686927608936 L 27.991298527443 93.27339158840346 L 38.366131191432 78.22177541853819 L 48.740963855422 77.92240214664878 L 59.115796519411 77.29502549145425 L 69.4906291834 77.62697485854284 L 79.86546184739 78.95598915009046 L 90.240294511379 80.42973586886777 L 100.61512717537 80.21819984833459 L 110.98995983936 78.8089447587937 L 121.36479250335 81.49490812576562 L 131.73962516734 83.1283541970484 L 142.11445783133 81.53415936533861 L 152.48929049531 82.50228128098931 L 162.8641231593 79.2943181473488 L 173.23895582329 80.9305281455988 L 183.61378848728 81.88307472437728 L 193.98862115127 76.6516041532987 L 204.36345381526 80.41768931925563 L 214.73828647925 77.548698360847 L 225.11311914324 83.0807242606312 L 235.48795180723 76.70759540337167 L 245.86278447122 78.88211059907837 L 256.23761713521 77.44792801726652 L 266.6124497992 83.196600594995 L 276.98728246319 76.85945493787548 L 287.36211512718 82.86233926383946 L 297.73694779116 77.5703578136849 L 308.11178045515 86.19925758873651 L 318.48661311914 81.70940881713847 L 328.86144578313 88.11282565516038 L 339.23627844712 85.96708311093613 L 349.61111111111 85.08873255457846 L 359.9859437751 89.72114170713564 L 370.36077643909 89.35325592451616 L 380.73560910308 91.17530139563371 L 391.11044176707 88.5344610403815 L 401.48527443106 100.26054874509634 L 411.86010709505 91.10157821819723 L 422.23493975904 91.25702095638101 L 432.60977242303 95.41751214049458 L 442.98460508701 94.08132489426865 L 453.359437751 100.08996447425986 L 463.73427041499 97.00225509698123 L 474.10910307898 103.00091643575908 L 484.48393574297 96.99528423508826 L 494.85876840696 96.00156266588886 L 505.23360107095 100.90479832119283 L 515.60843373494 95.5428547285021 L 521.83333333333 122.11288544113555" class="highcharts-graph" stroke="#5cb85c" stroke-width="2" stroke-linejoin="round" stroke-linecap="round"></path></g><g class="highcharts-markers highcharts-series-3 highcharts-line-series highcharts-color-undefined " transform="translate(63,47) scale(1 1)" width="298" height="527" clip-path="none"></g><g class="highcharts-series highcharts-series-4 highcharts-line-series highcharts-color-undefined " transform="translate(63,47) scale(1 1)" width="298" height="527" clip-path="url(#highcharts-43finda-38)"><path fill="none" d="M 5.1666666666667 104.01704415127529 L 7.2416331994645 101.7369379067722 L 9.3165997322624 100.05356552330696 L 11.39156626506 100.51055127528582 L 13.466532797858 99.33060756376432 L 15.541499330656 99.10352999120494 L 17.616465863454 100.95652911169745 L 19.691432396252 97.29162708883024 L 21.76639892905 106.55033245382586 L 27.991298527443 88.47185449428318 L 38.366131191432 74.38350480211079 L 48.740963855422 74.60689210202287 L 59.115796519411 70.51918128408096 L 69.4906291834 74.85747419525069 L 79.86546184739 71.77538364116094 L 90.240294511379 76.92123820580477 L 100.61512717537 70.66052291996482 L 110.98995983936 76.41338540017588 L 121.36479250335 78.12066068601587 L 131.73962516734 76.14074554089711 L 142.11445783133 80.9126035532102 L 152.48929049531 74.65872365875111 L 162.8641231593 75.03041379067724 L 173.23895582329 75.43259060686017 L 183.61378848728 80.02830100263853 L 193.98862115127 73.23144781002642 L 204.36345381526 74.58558916446788 L 214.73828647925 80.64763778364113 L 225.11311914324 76.59968126649076 L 235.48795180723 79.01255345646433 L 245.86278447122 84.14691785400171 L 256.23761713521 85.44012777484608 L 266.6124497992 83.62061368513633 L 276.98728246319 84.13911795954266 L 287.36211512718 84.7013813192612 L 297.73694779116 85.55861488126652 L 308.11178045515 87.09485861037817 L 318.48661311914 85.2542512576957 L 328.86144578313 85.1624766930519 L 339.23627844712 85.84056429199651 L 349.61111111111 92.036762708883 L 359.9859437751 88.31554209322778 L 370.36077643909 90.0777311521548 L 380.73560910308 90.5680970976253 L 391.11044176707 93.3166373262973 L 401.48527443106 94.42782874230429 L 411.86010709505 92.2318858751099 L 422.23493975904 93.11168042216357 L 432.60977242303 95.27128668425678 L 442.98460508701 95.50205452946349 L 453.359437751 93.76869572559363 L 463.73427041499 95.36434026385226 L 474.10910307898 94.13153759014952 L 484.48393574297 96.03995370272645 L 494.85876840696 96.29061966578718 L 505.23360107095 97.48578575197888 L 515.60843373494 97.13079897486867 L 521.83333333333 107.89936733356589" class="highcharts-graph" stroke="#5cb85c" stroke-width="2" stroke-linejoin="round" stroke-linecap="round"></path></g><g class="highcharts-markers highcharts-series-4 highcharts-line-series highcharts-color-undefined " transform="translate(63,47) scale(1 1)" width="298" height="527" clip-path="none"></g><g class="highcharts-series highcharts-series-5 highcharts-line-series highcharts-color-undefined " transform="translate(63,47) scale(1 1)" width="298" height="527" clip-path="url(#highcharts-43finda-38)"><path fill="none" d="M 5.1666666666667 110.91984591029023 L 7.2416331994645 105.0028291996482 L 9.3165997322624 105.8934219876869 L 11.39156626506 105.1065132805629 L 13.466532797858 105.63646578715918 L 15.541499330656 81.69078979771328 L 17.616465863454 89.79051890941074 L 19.691432396252 91.56237396657869 L 21.76639892905 90.8340693051891 L 27.991298527443 92.05988981530342 L 38.366131191432 77.80954554089712 L 48.740963855422 77.13567240105542 L 59.115796519411 76.68740911169743 L 69.4906291834 76.98908890061568 L 79.86546184739 79.01720823219 L 90.240294511379 80.03742184696571 L 100.61512717537 78.9892166754617 L 110.98995983936 78.41716151275287 L 121.36479250335 80.52051208443268 L 131.73962516734 81.96818927000879 L 142.11445783133 80.77987954265612 L 152.48929049531 81.37864724714157 L 162.8641231593 78.37608626209322 L 173.23895582329 79.44125410729993 L 183.61378848728 79.75503211961305 L 193.98862115127 75.15307342128409 L 204.36345381526 78.57636742304314 L 214.73828647925 76.03186153034301 L 225.11311914324 81.99072928759895 L 235.48795180723 75.86969920844322 L 245.86278447122 77.71368232189971 L 256.23761713521 76.24312963940196 L 266.6124497992 80.83653361477573 L 276.98728246319 75.88590705364993 L 287.36211512718 82.20690378188215 L 297.73694779116 76.26797607739667 L 308.11178045515 85.17329590149518 L 318.48661311914 80.70567570800355 L 328.86144578313 86.90357492179044 L 339.23627844712 83.39032721771716 L 349.61111111111 82.09919133142185 L 359.9859437751 86.41640401766082 L 370.36077643909 86.42307178666294 L 380.73560910308 88.83617513060912 L 391.11044176707 85.71876247603299 L 401.48527443106 96.25314556104766 L 411.86010709505 88.31548108146143 L 422.23493975904 88.42283635596053 L 432.60977242303 92.06723340779962 L 442.98460508701 91.27555116184982 L 453.359437751 97.2084816971275 L 463.73427041499 94.15082734964551 L 474.10910307898 99.30845151189996 L 484.48393574297 93.77602744111593 L 494.85876840696 93.0960617776918 L 505.23360107095 97.8683601822371 L 515.60843373494 92.93889451035025 L 521.83333333333 120.32619106386585" class="highcharts-graph" stroke="#5cb85c" stroke-width="2" stroke-linejoin="round" stroke-linecap="round"></path></g><g class="highcharts-markers highcharts-series-5 highcharts-line-series highcharts-color-undefined " transform="translate(63,47) scale(1 1)" width="298" height="527" clip-path="none"></g><g class="highcharts-series highcharts-series-6 highcharts-line-series highcharts-color-undefined " transform="translate(63,47) scale(1 1)" width="298" height="527" clip-path="url(#highcharts-43finda-38)"><path fill="none" d="M 5.1666666666667 104.76207210360519 L 7.2416331994645 102.38772260352147 L 9.3165997322624 100.53762018535707 L 11.39156626506 101.02522439165438 L 13.466532797858 99.74272374488288 L 15.541499330656 99.41937757757452 L 17.616465863454 101.50511908204106 L 19.691432396252 97.56718905510493 L 21.76639892905 106.79810990549527 L 27.991298527443 88.63592348313068 L 38.366131191432 74.37727357672227 L 48.740963855422 74.86928581211671 L 59.115796519411 70.72445051817812 L 69.4906291834 73.43493491196296 L 79.86546184739 70.59454971009421 L 90.240294511379 76.89277070810067 L 100.61512717537 69.65514973139963 L 110.98995983936 74.44567965789591 L 121.36479250335 74.9575733743209 L 131.73962516734 73.46998146429058 L 142.11445783133 80.25058233781255 L 152.48929049531 73.36866935520689 L 162.8641231593 73.7922573693902 L 173.23895582329 74.57220641901665 L 183.61378848728 78.09855713655247 L 193.98862115127 71.92555681697127 L 204.36345381526 73.38107714081357 L 214.73828647925 79.67868137754715 L 225.11311914324 78.1951709759401 L 235.48795180723 78.68275704219991 L 245.86278447122 82.51493065088039 L 256.23761713521 84.30065407618207 L 266.6124497992 85.16177979333747 L 276.98728246319 83.79755827791388 L 287.36211512718 85.02456855016663 L 297.73694779116 87.8609629437994 L 308.11178045515 85.16621191823478 L 318.48661311914 86.41903856338459 L 328.86144578313 84.5735881905342 L 339.23627844712 86.46339162988892 L 349.61111111111 91.62409313650892 L 359.9859437751 89.86486367371785 L 370.36077643909 90.10359019936081 L 380.73560910308 92.47759488662302 L 391.11044176707 94.56797577233294 L 401.48527443106 93.17995154466598 L 411.86010709505 93.00467983564147 L 422.23493975904 92.8462786181708 L 432.60977242303 95.85956609344089 L 442.98460508701 95.67417208948413 L 453.359437751 96.01871106376507 L 463.73427041499 96.47640931365089 L 474.10910307898 98.72430254147008 L 484.48393574297 98.26883555014459 L 494.85876840696 98.80965479642796 L 505.23360107095 100.4808761185852 L 515.60843373494 101.94284055639781 L 521.83333333333 115.0504403085634" class="highcharts-graph" stroke="#5cb85c" stroke-width="2" stroke-linejoin="round" stroke-linecap="round"></path></g><g class="highcharts-markers highcharts-series-6 highcharts-line-series highcharts-color-undefined " transform="translate(63,47) scale(1 1)" width="298" height="527" clip-path="none"></g><g class="highcharts-series highcharts-series-7 highcharts-line-series highcharts-color-undefined " transform="translate(63,47) scale(1 1)" width="298" height="527" clip-path="url(#highcharts-43finda-38)"><path fill="none" d="M 5.1666666666667 113.59980764255604 L 7.2416331994645 107.3585463621007 L 9.3165997322624 106.9319833817778 L 11.39156626506 106.49852718722894 L 13.466532797858 106.76881374503506 L 15.541499330656 83.5344188948578 L 17.616465863454 88.7242836054846 L 19.691432396252 91.1406272922342 L 21.76639892905 90.75306539240006 L 27.991298527443 92.0162468993015 L 38.366131191432 77.69187563726013 L 48.740963855422 76.65760326277183 L 59.115796519411 76.12406848168493 L 69.4906291834 76.60414457244599 L 79.86546184739 79.48946264704534 L 90.240294511379 79.55133831474183 L 100.61512717537 77.16817275646389 L 110.98995983936 77.90621831961164 L 121.36479250335 78.97074827654427 L 131.73962516734 80.99880446196227 L 142.11445783133 79.3014955791268 L 152.48929049531 81.79039941562294 L 162.8641231593 77.34159151435833 L 173.23895582329 80.09708134102357 L 183.61378848728 80.97524055333201 L 193.98862115127 75.61222918537231 L 204.36345381526 81.1155900229794 L 214.73828647925 76.0592722679612 L 225.11311914324 79.83354287714388 L 235.48795180723 74.51877057034102 L 245.86278447122 77.0604871100289 L 256.23761713521 77.13484425506013 L 266.6124497992 83.19795379698678 L 276.98728246319 75.37802745396439 L 287.36211512718 82.11969356262361 L 297.73694779116 78.1633637498098 L 308.11178045515 85.28155035314589 L 318.48661311914 78.95007709750573 L 328.86144578313 84.65102947845804 L 339.23627844712 84.99392290249438 L 349.61111111111 83.95555555555552 L 359.9859437751 86.64437188208618 L 370.36077643909 85.97997278911566 L 380.73560910308 91.76937868480726 L 391.11044176707 85.60025396825398 L 401.48527443106 92.12428117913831 L 411.86010709505 87.64350113378688 L 422.23493975904 87.46434467120187 L 432.60977242303 92.39805895691609 L 442.98460508701 91.49690702947845 L 453.359437751 95.30490702947841 L 463.73427041499 92.51709750566891 L 474.10910307898 99.10280272108844 L 484.48393574297 93.10068027210883 L 494.85876840696 93.20131963091694 L 505.23360107095 98.27154440166194 L 515.60843373494 91.81022288696579 L 521.83333333333 119.40576065053085" class="highcharts-graph" stroke="#5cb85c" stroke-width="2" stroke-linejoin="round" stroke-linecap="round"></path></g><g class="highcharts-markers highcharts-series-7 highcharts-line-series highcharts-color-undefined " transform="translate(63,47) scale(1 1)" width="298" height="527" clip-path="none"></g><g class="highcharts-series highcharts-series-8 highcharts-line-series highcharts-color-undefined " transform="translate(63,47) scale(1 1)" width="298" height="527" clip-path="url(#highcharts-43finda-38)"><path fill="none" d="M 5.1666666666667 103.91818327042645 L 7.2416331994645 101.43621117915146 L 9.3165997322624 99.73999467510299 L 11.39156626506 100.333091729182 L 13.466532797858 99.11292101924792 L 15.541499330656 98.77511519005185 L 17.616465863454 100.54824575965921 L 19.691432396252 97.10410111039764 L 21.76639892905 106.21375076349625 L 27.991298527443 88.32852359399226 L 38.366131191432 74.1171938419132 L 48.740963855422 74.75337770747521 L 59.115796519411 70.64878019138308 L 69.4906291834 72.72010211273118 L 79.86546184739 70.28429712925407 L 90.240294511379 76.4033150929508 L 100.61512717537 69.57556761836153 L 110.98995983936 73.41904768065362 L 121.36479250335 74.02833390759591 L 131.73962516734 72.9475996867659 L 142.11445783133 79.70371007047768 L 152.48929049531 72.39207354737667 L 162.8641231593 72.60657754111193 L 173.23895582329 73.43104576350825 L 183.61378848728 77.23120150352389 L 193.98862115127 71.87308216131564 L 204.36345381526 72.92857622552859 L 214.73828647925 79.34271235708692 L 225.11311914324 78.1664501174628 L 235.48795180723 77.70393715982769 L 245.86278447122 81.16230155523189 L 256.23761713521 82.94504621842162 L 266.6124497992 84.48296499553635 L 276.98728246319 82.5507559397955 L 287.36211512718 83.59065921157736 L 297.73694779116 87.42978076399004 L 308.11178045515 83.51176381775753 L 318.48661311914 85.26286553792659 L 328.86144578313 83.06759680426845 L 339.23627844712 85.8215915420158 L 349.61111111111 90.86129920902184 L 359.9859437751 88.9103362205341 L 370.36077643909 88.71612587127794 L 380.73560910308 91.47319575277987 L 391.11044176707 92.97737912591114 L 401.48527443106 91.65664247113924 L 411.86010709505 90.86501301671336 L 422.23493975904 90.95114412368227 L 432.60977242303 93.85232286461678 L 442.98460508701 94.00757544524674 L 453.359437751 95.0257074920506 L 463.73427041499 95.44387186917498 L 474.10910307898 96.65745863324926 L 484.48393574297 95.83108646616543 L 494.85876840696 96.19603318446383 L 505.23360107095 98.24976486990306 L 515.60843373494 98.16760394557787 L 521.83333333333 108.88024322766117" class="highcharts-graph" stroke="#5cb85c" stroke-width="2" stroke-linejoin="round" stroke-linecap="round"></path></g><g class="highcharts-markers highcharts-series-8 highcharts-line-series highcharts-color-undefined " transform="translate(63,47) scale(1 1)" width="298" height="527" clip-path="none"></g><g class="highcharts-series highcharts-series-9 highcharts-line-series highcharts-color-undefined " transform="translate(63,47) scale(1 1)" width="298" height="527" clip-path="url(#highcharts-43finda-38)"><path fill="none" d="M 5.1666666666667 115.90408294310191 L 7.2416331994645 113.25997525489029 L 9.3165997322624 107.95187796588934 L 11.39156626506 106.11266103898137 L 13.466532797858 108.32179355061004 L 15.541499330656 83.90885843604642 L 17.616465863454 93.36219448403315 L 19.691432396252 95.91221312117275 L 21.76639892905 94.76242251491755 L 27.991298527443 94.88378618972294 L 38.366131191432 79.92597929554742 L 48.740963855422 78.78567226824953 L 59.115796519411 78.90905213700648 L 69.4906291834 79.64972338726093 L 79.86546184739 82.99283431739516 L 90.240294511379 83.64449433838152 L 100.61512717537 80.37646796447979 L 110.98995983936 81.56122497883561 L 121.36479250335 83.38137919153002 L 131.73962516734 86.48775930711523 L 142.11445783133 83.64618095819824 L 152.48929049531 85.61283440617706 L 162.8641231593 80.37220880514965 L 173.23895582329 83.22472721577469 L 183.61378848728 84.0239677990258 L 193.98862115127 79.15590170558661 L 204.36345381526 87.00280098357064 L 214.73828647925 79.19566677630033 L 225.11311914324 84.40574981597203 L 235.48795180723 77.37651769488505 L 245.86278447122 79.95389287056759 L 256.23761713521 80.29867823581003 L 266.6124497992 89.19960330785617 L 276.98728246319 79.43680816940233 L 287.36211512718 87.42073261496051 L 297.73694779116 81.52796090715455 L 308.11178045515 92.79322716451574 L 318.48661311914 83.96511029665132 L 328.86144578313 91.48862369053825 L 339.23627844712 91.6542399599023 L 349.61111111111 89.87591128375419 L 359.9859437751 93.93189273855023 L 370.36077643909 90.93101105855075 L 380.73560910308 99.15905640866305 L 391.11044176707 91.41455493718945 L 401.48527443106 99.92466541353389 L 411.86010709505 94.18219047619047 L 422.23493975904 92.32893295739348 L 432.60977242303 99.54075701754385 L 442.98460508701 99.04297005012532 L 453.359437751 104.45841052631579 L 463.73427041499 99.75165363408522 L 474.10910307898 107.97158860331248 L 484.48393574297 100.65286912388979 L 494.85876840696 100.19114800625445 L 505.23360107095 106.21023247070622 L 515.60843373494 98.49533250460155 L 521.83333333333 129.27518358418456" class="highcharts-graph" stroke="#5cb85c" stroke-width="2" stroke-linejoin="round" stroke-linecap="round"></path></g><g class="highcharts-markers highcharts-series-9 highcharts-line-series highcharts-color-undefined " transform="translate(63,47) scale(1 1)" width="298" height="527" clip-path="none"></g><g class="highcharts-series highcharts-series-10 highcharts-line-series highcharts-color-undefined " transform="translate(63,47) scale(1 1)" width="298" height="527" clip-path="url(#highcharts-43finda-38)"><path fill="none" d="M 5.1666666666667 101.8326596865534 L 7.2416331994645 101.91125115237719 L 9.3165997322624 101.73356183326749 L 11.39156626506 102.8512090082971 L 13.466532797858 101.10738114052418 L 15.541499330656 102.40016660081656 L 17.616465863454 104.27233109442909 L 19.691432396252 99.73659291452657 L 21.76639892905 108.82769261161596 L 27.991298527443 89.27317437113132 L 38.366131191432 74.07611629132094 L 48.740963855422 74.95404477808506 L 59.115796519411 70.70276649545633 L 69.4906291834 74.12962913209535 L 79.86546184739 70.86601303832478 L 90.240294511379 77.11137560911365 L 100.61512717537 69.68498248386675 L 110.98995983936 74.90343619122874 L 121.36479250335 74.52882668247068 L 131.73962516734 73.54610957460824 L 142.11445783133 80.79736441459241 L 152.48929049531 73.84181364414596 L 162.8641231593 73.99165744764915 L 173.23895582329 74.26096812853945 L 183.61378848728 78.23901106282108 L 193.98862115127 72.448301593573 L 204.36345381526 73.23655142894773 L 214.73828647925 79.63052153299091 L 225.11311914324 78.57182286316345 L 235.48795180723 79.23776043724482 L 245.86278447122 83.8251864875543 L 256.23761713521 84.76070946924798 L 266.6124497992 84.65917832213879 L 276.98728246319 84.56147372580008 L 287.36211512718 85.45050902146713 L 297.73694779116 87.34734005004606 L 308.11178045515 84.98019796799059 L 318.48661311914 86.7256488253017 L 328.86144578313 85.03305553268905 L 339.23627844712 85.66193714088149 L 349.61111111111 91.61591228041297 L 359.9859437751 88.90335132287325 L 370.36077643909 89.6794985758738 L 380.73560910308 92.08818676632805 L 391.11044176707 94.50580431024548 L 401.48527443106 93.705655740134 L 411.86010709505 94.1134033816823 L 422.23493975904 93.45643846622431 L 432.60977242303 96.74807290208926 L 442.98460508701 95.54951816789875 L 453.359437751 96.5010732478309 L 463.73427041499 96.06979528803569 L 474.10910307898 97.1871812179983 L 484.48393574297 96.81789848367606 L 494.85876840696 97.89954737483325 L 505.23360107095 99.99515869540159 L 515.60843373494 101.05801454713605 L 521.83333333333 108.02533713843172" class="highcharts-graph" stroke="#5cb85c" stroke-width="2" stroke-linejoin="round" stroke-linecap="round"></path></g><g class="highcharts-markers highcharts-series-10 highcharts-line-series highcharts-color-undefined " transform="translate(63,47) scale(1 1)" width="298" height="527" clip-path="none"></g><g class="highcharts-series highcharts-series-11 highcharts-line-series highcharts-color-undefined " transform="translate(63,47) scale(1 1)" width="298" height="527" clip-path="url(#highcharts-43finda-38)"><path fill="none" d="M 5.1666666666667 112.69162583958911 L 7.2416331994645 107.31561635717108 L 9.3165997322624 104.67951534307917 L 11.39156626506 105.2917634663506 L 13.466532797858 105.67844132753854 L 15.541499330656 82.12739496905041 L 17.616465863454 89.9968438035032 L 19.691432396252 92.66130053997102 L 21.76639892905 91.47663966811538 L 27.991298527443 92.02997853285925 L 38.366131191432 77.98675306203086 L 48.740963855422 76.53060331884635 L 59.115796519411 76.50014789938106 L 69.4906291834 76.88690425391809 L 79.86546184739 78.9608359014882 L 90.240294511379 79.38371881996576 L 100.61512717537 77.88946055577509 L 110.98995983936 77.71756012116424 L 121.36479250335 79.20108441986042 L 131.73962516734 80.81080640063215 L 142.11445783133 79.55240102726196 L 152.48929049531 81.99138561833266 L 162.8641231593 77.3204622678783 L 173.23895582329 80.23794231529038 L 183.61378848728 81.67925681548792 L 193.98862115127 75.62306321612013 L 204.36345381526 80.04533925984458 L 214.73828647925 75.53248189121561 L 225.11311914324 79.59592558935864 L 235.48795180723 74.49854787304093 L 245.86278447122 77.53786922165153 L 256.23761713521 77.54642499670749 L 266.6124497992 81.40737547741341 L 276.98728246319 75.07174555511654 L 287.36211512718 81.6237227709733 L 297.73694779116 78.59221151060186 L 308.11178045515 84.4746012116423 L 318.48661311914 78.52515131459805 L 328.86144578313 83.27444935052108 L 339.23627844712 82.03020944666702 L 349.61111111111 81.66806249485523 L 359.9859437751 85.73665221185027 L 370.36077643909 85.53513020859054 L 380.73560910308 89.28358861395105 L 391.11044176707 83.80159747123034 L 401.48527443106 91.15090024859649 L 411.86010709505 85.82566806605095 L 422.23493975904 88.00339698062268 L 432.60977242303 91.7489706129303 L 442.98460508701 91.23041793846002 L 453.359437751 94.44136658928895 L 463.73427041499 91.53251451243801 L 474.10910307898 99.64426084522813 L 484.48393574297 92.65182608123013 L 494.85876840696 92.6284535322105 L 505.23360107095 96.46728186891886 L 515.60843373494 90.54982513464026 L 521.83333333333 116.05536491852942" class="highcharts-graph" stroke="#5cb85c" stroke-width="2" stroke-linejoin="round" stroke-linecap="round"></path></g><g class="highcharts-markers highcharts-series-11 highcharts-line-series highcharts-color-undefined " transform="translate(63,47) scale(1 1)" width="298" height="527" clip-path="none"></g><g class="highcharts-series highcharts-series-12 highcharts-line-series highcharts-color-undefined " transform="translate(63,47) scale(1 1)" width="298" height="527" clip-path="url(#highcharts-43finda-38)"><path fill="none" d="M 5.1666666666667 102.8683276819759 L 7.2416331994645 100.51729157046165 L 9.3165997322624 100.64114205797367 L 11.39156626506 102.16635098228068 L 13.466532797858 100.09258269233305 L 15.541499330656 99.52640903513517 L 17.616465863454 101.2470265064056 L 19.691432396252 97.88851582599978 L 21.76639892905 106.67616006755242 L 27.991298527443 88.55015761349995 L 38.366131191432 74.0099216550341 L 48.740963855422 74.6396954863906 L 59.115796519411 70.32950979641922 L 69.4906291834 73.43854234559919 L 79.86546184739 70.3385843019804 L 90.240294511379 76.38053793885979 L 100.61512717537 69.35616291741982 L 110.98995983936 74.12672642592324 L 121.36479250335 73.92581341284819 L 131.73962516734 73.09874378900429 L 142.11445783133 79.68719654849394 L 152.48929049531 73.22374235087668 L 162.8641231593 73.23589935746048 L 173.23895582329 73.34809610386182 L 183.61378848728 77.28238966659191 L 193.98862115127 71.85452999617382 L 204.36345381526 72.64528142975365 L 214.73828647925 78.65377211315183 L 225.11311914324 77.96430504538733 L 235.48795180723 78.36432773907538 L 245.86278447122 82.56120825416926 L 256.23761713521 83.8093073675322 L 266.6124497992 83.9762207093097 L 276.98728246319 83.52399926113574 L 287.36211512718 84.40721036521 L 297.73694779116 86.47696411230737 L 308.11178045515 84.1386517275728 L 318.48661311914 85.77409149809327 L 328.86144578313 84.27103657263771 L 339.23627844712 85.075142382096 L 349.61111111111 90.41679100577974 L 359.9859437751 88.48804598359345 L 370.36077643909 88.73867437318555 L 380.73560910308 91.18175529163366 L 391.11044176707 93.38212626022698 L 401.48527443106 92.5034627606228 L 411.86010709505 92.78110847189234 L 422.23493975904 92.24109063077333 L 432.60977242303 95.0161949854843 L 442.98460508701 94.29607157561361 L 453.359437751 95.37360622855635 L 463.73427041499 94.93845859065718 L 474.10910307898 96.11699392979679 L 484.48393574297 95.46641171813144 L 494.85876840696 96.17717593032464 L 505.23360107095 98.21976183689631 L 515.60843373494 98.86850000028664 L 521.83333333333 106.39912085242324" class="highcharts-graph" stroke="#5cb85c" stroke-width="2" stroke-linejoin="round" stroke-linecap="round"></path></g><g class="highcharts-markers highcharts-series-12 highcharts-line-series highcharts-color-undefined " transform="translate(63,47) scale(1 1)" width="298" height="527" clip-path="none"></g><g class="highcharts-series highcharts-series-13 highcharts-line-series highcharts-color-undefined " transform="translate(63,47) scale(1 1)" width="298" height="527" clip-path="url(#highcharts-43finda-38)"><path fill="none" d="M 5.1666666666667 113.34890979378045 L 7.2416331994645 110.54729381341286 L 9.3165997322624 107.409040412703 L 11.39156626506 106.6362133706279 L 13.466532797858 107.96569920705079 L 15.541499330656 84.53098518332826 L 17.616465863454 91.58857572599052 L 19.691432396252 94.98302270658243 L 21.76639892905 91.7607868800549 L 27.991298527443 93.45358320689246 L 38.366131191432 79.23491815866899 L 48.740963855422 78.1176688084652 L 59.115796519411 78.57980805615298 L 69.4906291834 78.94706603512199 L 79.86546184739 81.27627300674203 L 90.240294511379 81.4521485625321 L 100.61512717537 79.69414790284057 L 110.98995983936 79.6556952752893 L 121.36479250335 81.42998915467129 L 131.73962516734 83.40958389297163 L 142.11445783133 81.83032111144834 L 152.48929049531 84.42114749383185 L 162.8641231593 78.8498728906363 L 173.23895582329 82.06451255392983 L 183.61378848728 83.98491069096087 L 193.98862115127 77.36472075257609 L 204.36345381526 82.53354024778017 L 214.73828647925 77.28411964165556 L 225.11311914324 81.66020165450635 L 235.48795180723 76.06701927618647 L 245.86278447122 78.91880453340019 L 256.23761713521 79.18493760637526 L 266.6124497992 84.62438810971994 L 276.98728246319 77.32835982214715 L 287.36211512718 84.98436446637552 L 297.73694779116 80.80826757088386 L 308.11178045515 88.12706162313253 L 318.48661311914 81.06247988494377 L 328.86144578313 87.44749513807935 L 339.23627844712 86.19084182192432 L 349.61111111111 85.34484393307648 L 359.9859437751 89.82064759592546 L 370.36077643909 89.372758959202 L 380.73560910308 94.44600960574235 L 391.11044176707 87.56777262891222 L 401.48527443106 96.63285807779593 L 411.86010709505 89.9140881406027 L 422.23493975904 91.6792352351296 L 432.60977242303 96.60827508312664 L 442.98460508701 96.28424510476594 L 453.359437751 100.3474067662427 L 463.73427041499 95.92268791893176 L 474.10910307898 105.04632902306435 L 484.48393574297 96.89930754209112 L 494.85876840696 96.59583416899775 L 505.23360107095 101.68625988283108 L 515.60843373494 94.47119023204402 L 521.83333333333 122.82080965075167" class="highcharts-graph" stroke="#5cb85c" stroke-width="2" stroke-linejoin="round" stroke-linecap="round"></path></g><g class="highcharts-markers highcharts-series-13 highcharts-line-series highcharts-color-undefined " transform="translate(63,47) scale(1 1)" width="298" height="527" clip-path="none"></g><g class="highcharts-series highcharts-series-14 highcharts-line-series highcharts-color-undefined " transform="translate(63,47) scale(1 1)" width="298" height="527" clip-path="url(#highcharts-43finda-38)"><path fill="none" d="M 5.1666666666667 103.74131010003228 L 7.2416331994645 101.19618248590174 L 9.3165997322624 101.42321178874906 L 11.39156626506 102.8673526022219 L 13.466532797858 100.52379477250727 L 15.541499330656 99.86294626530832 L 17.616465863454 101.48557845080592 L 19.691432396252 98.13856758708647 L 21.76639892905 107.65942008942977 L 27.991298527443 88.85278519952675 L 38.366131191432 74.09809677468922 L 48.740963855422 74.5720467739209 L 59.115796519411 70.73679927472762 L 69.4906291834 75.19501737887799 L 79.86546184739 70.37749402388499 L 90.240294511379 76.68309137236213 L 100.61512717537 69.49735395866335 L 110.98995983936 76.43905000494851 L 121.36479250335 74.95163674562835 L 131.73962516734 74.08295053726224 L 142.11445783133 80.46600028106019 L 152.48929049531 74.85978232010953 L 162.8641231593 73.76859083718006 L 173.23895582329 73.45093992560149 L 183.61378848728 76.78230607801436 L 193.98862115127 71.77280475232422 L 204.36345381526 71.97648085888824 L 214.73828647925 79.07926569976598 L 225.11311914324 77.0545940040306 L 235.48795180723 78.85207304009654 L 245.86278447122 83.2272293772943 L 256.23761713521 85.02734349402147 L 266.6124497992 84.34327895370046 L 276.98728246319 83.48812234040057 L 287.36211512718 83.59251156192653 L 297.73694779116 86.75603544527232 L 308.11178045515 84.7969625094317 L 318.48661311914 86.32358006864055 L 328.86144578313 84.94583444907559 L 339.23627844712 84.7332751718701 L 349.61111111111 91.21222379002782 L 359.9859437751 89.015642873091 L 370.36077643909 89.77225442653068 L 380.73560910308 92.83654475366487 L 391.11044176707 94.05627986781661 L 401.48527443106 93.48194385621287 L 411.86010709505 94.967934294527 L 422.23493975904 91.97594185198562 L 432.60977242303 96.46883335649756 L 442.98460508701 95.12750403810742 L 453.359437751 96.44825332683413 L 463.73427041499 96.69064018532819 L 474.10910307898 97.66073628951426 L 484.48393574297 95.68204281790975 L 494.85876840696 95.93676393831134 L 505.23360107095 97.0426094751945 L 515.60843373494 98.74543722017512 L 521.83333333333 102.34931363477426" class="highcharts-graph" stroke="#5cb85c" stroke-width="2" stroke-linejoin="round" stroke-linecap="round"></path></g><g class="highcharts-markers highcharts-series-14 highcharts-line-series highcharts-color-undefined " transform="translate(63,47) scale(1 1)" width="298" height="527" clip-path="none"></g><g class="highcharts-series highcharts-series-15 highcharts-line-series highcharts-color-undefined " transform="translate(63,47) scale(1 1)" width="298" height="527" clip-path="url(#highcharts-43finda-38)"><path fill="none" d="M 5.1666666666667 114.33457613054904 L 7.2416331994645 109.11555801410591 L 9.3165997322624 106.47454509135054 L 11.39156626506 106.63902457013782 L 13.466532797858 107.29163078719711 L 15.541499330656 83.92336452619125 L 17.616465863454 91.87241229889824 L 19.691432396252 93.6660262142934 L 21.76639892905 91.92296501175494 L 27.991298527443 92.96218958496596 L 38.366131191432 78.61223423838715 L 48.740963855422 77.8864548010879 L 59.115796519411 79.003101953011 L 69.4906291834 78.17356124095329 L 79.86546184739 79.5693498265133 L 90.240294511379 80.15210498116565 L 100.61512717537 79.41360805111029 L 110.98995983936 78.92187446096656 L 121.36479250335 80.89035706704405 L 131.73962516734 81.76097297479492 L 142.11445783133 81.26636202403608 L 152.48929049531 84.32035688280394 L 162.8641231593 79.54816465627621 L 173.23895582329 81.2502495334075 L 183.61378848728 85.30170321237836 L 193.98862115127 76.10725222059085 L 204.36345381526 80.05923066983041 L 214.73828647925 76.77756321136454 L 225.11311914324 81.13652289308439 L 235.48795180723 75.96747663256824 L 245.86278447122 79.21885778898564 L 256.23761713521 79.42736063966774 L 266.6124497992 82.23299763221365 L 276.98728246319 76.78137900455573 L 287.36211512718 84.74603053638239 L 297.73694779116 80.97879079509437 L 308.11178045515 86.58211401935924 L 318.48661311914 79.60673271148565 L 328.86144578313 85.35590672298696 L 339.23627844712 83.99747116999771 L 349.61111111111 82.94839448088254 L 359.9859437751 88.91928496004056 L 370.36077643909 91.3815795565778 L 380.73560910308 95.05867448419102 L 391.11044176707 85.95372710877825 L 401.48527443106 95.52348775135465 L 411.86010709505 88.61428973898325 L 422.23493975904 94.21811741573751 L 432.60977242303 97.91412532040397 L 442.98460508701 97.43643815817916 L 453.359437751 99.91816682031265 L 463.73427041499 94.87263806788351 L 474.10910307898 106.03983149246417 L 484.48393574297 97.00183624278012 L 494.85876840696 95.97636043995007 L 505.23360107095 100.57514149200841 L 515.60843373494 93.27707648146566 L 521.83333333333 117.93879420600359" class="highcharts-graph" stroke="#5cb85c" stroke-width="2" stroke-linejoin="round" stroke-linecap="round"></path></g><g class="highcharts-markers highcharts-series-15 highcharts-line-series highcharts-color-undefined " transform="translate(63,47) scale(1 1)" width="298" height="527" clip-path="none"></g><g class="highcharts-series highcharts-series-16 highcharts-line-series highcharts-color-undefined " transform="translate(63,47) scale(1 1)" width="298" height="527" clip-path="url(#highcharts-43finda-38)"><path fill="none" d="M 5.1666666666667 103.91457970623907 L 7.2416331994645 99.63231047028705 L 9.3165997322624 99.12465435925077 L 11.39156626506 100.22879234604503 L 13.466532797858 99.54629564748686 L 15.541499330656 100.5062724700175 L 17.616465863454 102.96897884382159 L 19.691432396252 98.3059474464358 L 21.76639892905 106.54289071553697 L 27.991298527443 88.63286985581459 L 38.366131191432 74.43126845438621 L 48.740963855422 74.44101840722271 L 59.115796519411 70.4443087454521 L 69.4906291834 74.21930737097426 L 79.86546184739 71.8456355747204 L 90.240294511379 77.27276129901634 L 100.61512717537 70.83991268023172 L 110.98995983936 75.27397277994882 L 121.36479250335 76.33891820509365 L 131.73962516734 77.0199692763778 L 142.11445783133 80.03818202398602 L 152.48929049531 74.66688963751514 L 162.8641231593 74.58215981673627 L 173.23895582329 74.5429833176122 L 183.61378848728 79.83193919956884 L 193.98862115127 73.1054033688182 L 204.36345381526 74.30797251044334 L 214.73828647925 82.09280388087859 L 225.11311914324 77.36094456272738 L 235.48795180723 79.83394701522707 L 245.86278447122 85.5789661770651 L 256.23761713521 83.86221953914563 L 266.6124497992 82.755399110632 L 276.98728246319 84.57468890985041 L 287.36211512718 83.67488230696668 L 297.73694779116 85.89057916722817 L 308.11178045515 87.01330149575526 L 318.48661311914 86.6409882226115 L 328.86144578313 84.66718315478053 L 339.23627844712 85.58036033365227 L 349.61111111111 91.78441763128464 L 359.9859437751 88.24422148256951 L 370.36077643909 89.70340912827285 L 380.73560910308 90.72577051301056 L 391.11044176707 93.18632554002886 L 401.48527443106 94.60248110067513 L 411.86010709505 92.18707844062044 L 422.23493975904 93.373954426013 L 432.60977242303 94.97014119581186 L 442.98460508701 95.11141300920374 L 453.359437751 93.93345184546351 L 463.73427041499 95.7283347302888 L 474.10910307898 95.69270756916276 L 484.48393574297 97.05657890552357 L 494.85876840696 97.24017604333704 L 505.23360107095 99.94599307361639 L 515.60843373494 100.64982470991905 L 521.83333333333 113.90531111127666" class="highcharts-graph" stroke="#5cb85c" stroke-width="2" stroke-linejoin="round" stroke-linecap="round"></path></g><g class="highcharts-markers highcharts-series-16 highcharts-line-series highcharts-color-undefined " transform="translate(63,47) scale(1 1)" width="298" height="527" clip-path="none"></g><g class="highcharts-series highcharts-series-17 highcharts-line-series highcharts-color-undefined " transform="translate(63,47) scale(1 1)" width="298" height="527" clip-path="url(#highcharts-43finda-38)"><path fill="none" d="M 5.1666666666667 116.16546772672146 L 7.2416331994645 113.59433930737097 L 9.3165997322624 107.81793397116292 L 11.39156626506 105.93428163320308 L 13.466532797858 107.93559196873736 L 15.541499330656 83.58841773345912 L 17.616465863454 92.99896941113056 L 19.691432396252 95.43710012127744 L 21.76639892905 94.23064384853791 L 27.991298527443 94.550223851233 L 38.366131191432 79.57387866864303 L 48.740963855422 78.96729346449266 L 59.115796519411 78.74532542783996 L 69.4906291834 79.57280247945025 L 79.86546184739 82.13880695324079 L 90.240294511379 82.99818418002965 L 100.61512717537 81.89823851232987 L 110.98995983936 80.62859226519336 L 121.36479250335 84.29814041234337 L 131.73962516734 84.62840199434038 L 142.11445783133 84.88651071284195 L 152.48929049531 86.34100450074118 L 162.8641231593 81.77881363697614 L 173.23895582329 85.55209357229484 L 183.61378848728 87.19215771459372 L 193.98862115127 80.03872814984504 L 204.36345381526 84.9189730764048 L 214.73828647925 79.66002199164527 L 225.11311914324 86.1157757714594 L 235.48795180723 79.42144530386742 L 245.86278447122 82.15130359789788 L 256.23761713521 81.39846910119925 L 266.6124497992 88.38963503570946 L 276.98728246319 79.87127632394558 L 287.36211512718 87.61270675111172 L 297.73694779116 81.36899436733597 L 308.11178045515 90.24228669990566 L 318.48661311914 84.01960016170327 L 328.86144578313 91.27771886398367 L 339.23627844712 89.06881839130025 L 349.61111111111 90.35952393914482 L 359.9859437751 94.6813170370171 L 370.36077643909 92.63815235348812 L 380.73560910308 95.68427462976189 L 391.11044176707 91.95365467800403 L 401.48527443106 106.90249344419138 L 411.86010709505 95.84395434516026 L 422.23493975904 95.1996295867078 L 432.60977242303 101.13924596747026 L 442.98460508701 98.93664250966864 L 453.359437751 104.49578072740505 L 463.73427041499 101.99526159899742 L 474.10910307898 109.95055931221279 L 484.48393574297 102.65010745327385 L 494.85876840696 101.20171397000368 L 505.23360107095 107.3948991865762 L 515.60843373494 100.77466759350162 L 521.83333333333 127.75075166826608" class="highcharts-graph" stroke="#5cb85c" stroke-width="2" stroke-linejoin="round" stroke-linecap="round"></path></g><g class="highcharts-markers highcharts-series-17 highcharts-line-series highcharts-color-undefined " transform="translate(63,47) scale(1 1)" width="298" height="527" clip-path="none"></g><g class="highcharts-series highcharts-series-18 highcharts-line-series highcharts-color-undefined " transform="translate(63,47) scale(1 1)" width="298" height="527" clip-path="url(#highcharts-43finda-38)"><path fill="none" d="M 5.1666666666667 103.444520375443 L 7.2416331994645 101.05236521310155 L 9.3165997322624 101.17724597229616 L 11.39156626506 102.76997857949604 L 13.466532797858 100.45744070415037 L 15.541499330656 99.89176336185074 L 17.616465863454 101.50314297212736 L 19.691432396252 98.10079995845723 L 21.76639892905 107.51343571901492 L 27.991298527443 88.84529421386753 L 38.366131191432 74.19399571589923 L 48.740963855422 74.72750117488218 L 59.115796519411 70.62647584675904 L 69.4906291834 75.15557756169756 L 79.86546184739 70.39556250243419 L 90.240294511379 76.80259538615326 L 100.61512717537 69.55002536706954 L 110.98995983936 76.27170515000844 L 121.36479250335 74.88227903776496 L 131.73962516734 74.07994724064963 L 142.11445783133 80.43120933674331 L 152.48929049531 74.69994074958782 L 162.8641231593 73.77604407360923 L 173.23895582329 73.67031365217846 L 183.61378848728 77.12328825881497 L 193.98862115127 71.89771116996417 L 204.36345381526 72.37139762164412 L 214.73828647925 79.35614498623877 L 225.11311914324 77.38874456041952 L 235.48795180723 78.98940551487769 L 245.86278447122 83.40829194578592 L 256.23761713521 85.3668252583476 L 266.6124497992 84.69589583008778 L 276.98728246319 83.87436475048034 L 287.36211512718 83.95508178844057 L 297.73694779116 87.09801692890898 L 308.11178045515 85.26216076309939 L 318.48661311914 86.53864280984223 L 328.86144578313 85.51627625787182 L 339.23627844712 85.18764240732324 L 349.61111111111 91.46958997597872 L 359.9859437751 89.23271913263645 L 370.36077643909 89.87108880088297 L 380.73560910308 93.0436212166461 L 391.11044176707 94.51174358649175 L 401.48527443106 93.71226852609303 L 411.86010709505 94.9094381468064 L 422.23493975904 92.32585054471323 L 432.60977242303 96.3067525742407 L 442.98460508701 95.16945149520211 L 453.359437751 96.48854058405723 L 463.73427041499 96.47869663563293 L 474.10910307898 97.54902481399247 L 484.48393574297 95.89177442769397 L 494.85876840696 96.2519298300287 L 505.23360107095 97.54832830820774 L 515.60843373494 98.94527011122142 L 521.83333333333 103.62644082392612" class="highcharts-graph" stroke="#5cb85c" stroke-width="2" stroke-linejoin="round" stroke-linecap="round"></path></g><g class="highcharts-markers highcharts-series-18 highcharts-line-series highcharts-color-undefined " transform="translate(63,47) scale(1 1)" width="298" height="527" clip-path="none"></g><g class="highcharts-series highcharts-series-19 highcharts-line-series highcharts-color-undefined " transform="translate(63,47) scale(1 1)" width="298" height="527" clip-path="url(#highcharts-43finda-38)"><path fill="none" d="M 5.1666666666667 113.78316166638538 L 7.2416331994645 110.62485453530488 L 9.3165997322624 107.9117542743642 L 11.39156626506 106.63934777810957 L 13.466532797858 105.4030746861572 L 15.541499330656 83.55985148450583 L 17.616465863454 91.93560555115604 L 19.691432396252 93.14619065546742 L 21.76639892905 90.9293637461216 L 27.991298527443 92.64043131807497 L 38.366131191432 78.51100131119452 L 48.740963855422 77.73968079554453 L 59.115796519411 78.3785070038557 L 69.4906291834 78.1866672551896 L 79.86546184739 79.521576029807 L 90.240294511379 79.89566121850208 L 100.61512717537 78.9490898233133 L 110.98995983936 78.29988009710624 L 121.36479250335 80.15755489490971 L 131.73962516734 81.35006555972427 L 142.11445783133 80.71077511067259 L 152.48929049531 83.27004146490282 L 162.8641231593 78.78806850446927 L 173.23895582329 80.83664340239912 L 183.61378848728 84.26074186010283 L 193.98862115127 75.86087749909123 L 204.36345381526 79.61765519032045 L 214.73828647925 76.28809284935346 L 225.11311914324 80.6098279067352 L 235.48795180723 75.378772706029 L 245.86278447122 78.5342734590019 L 256.23761713521 78.50298322687854 L 266.6124497992 81.64628976476087 L 276.98728246319 76.14188606740404 L 287.36211512718 83.91518751622786 L 297.73694779116 80.01094957677725 L 308.11178045515 85.49116865500105 L 318.48661311914 78.91007808462848 L 328.86144578313 84.69776050065568 L 339.23627844712 83.74682558849113 L 349.61111111111 82.43819317311315 L 359.9859437751 87.81448941170356 L 370.36077643909 89.75944637037611 L 380.73560910308 93.09173476674593 L 391.11044176707 85.02395333987599 L 401.48527443106 93.80811093654651 L 411.86010709505 87.24843512471276 L 422.23493975904 92.12893818247917 L 432.60977242303 96.19653738784942 L 442.98460508701 95.75548639910673 L 453.359437751 98.130912084345 L 463.73427041499 93.71241601204929 L 474.10910307898 103.6621189607489 L 484.48393574297 95.31491520054018 L 494.85876840696 95.03932991417483 L 505.23360107095 98.92641967357855 L 515.60843373494 92.62425377902892 L 521.83333333333 116.82601080259238" class="highcharts-graph" stroke="#5cb85c" stroke-width="2" stroke-linejoin="round" stroke-linecap="round"></path></g><g class="highcharts-markers highcharts-series-19 highcharts-line-series highcharts-color-undefined " transform="translate(63,47) scale(1 1)" width="298" height="527" clip-path="none"></g></g><text x="330" text-anchor="middle" class="highcharts-title" style="color:#333333;font-size:18px;fill:#333333;width:536px;" y="24"><tspan>FastQC: Mean Quality Scores</tspan></text><g class="highcharts-axis-labels highcharts-xaxis-labels "><text x="66.09170013386881" style="color:#666666;cursor:default;font-size:11px;fill:#666666;width:95px;text-overflow:clip;" text-anchor="middle" transform="translate(0,0)" y="364" opacity="1"><tspan>0</tspan></text><text x="169.84002677376174" style="color:#666666;cursor:default;font-size:11px;fill:#666666;width:95px;text-overflow:clip;" text-anchor="middle" transform="translate(0,0)" y="364" opacity="1"><tspan>50</tspan></text><text x="273.5883534136546" style="color:#666666;cursor:default;font-size:11px;fill:#666666;width:95px;text-overflow:clip;" text-anchor="middle" transform="translate(0,0)" y="364" opacity="1"><tspan>100</tspan></text><text x="377.3366800535475" style="color:#666666;cursor:default;font-size:11px;fill:#666666;width:95px;text-overflow:clip;" text-anchor="middle" transform="translate(0,0)" y="364" opacity="1"><tspan>150</tspan></text><text x="481.08500669344045" style="color:#666666;cursor:default;font-size:11px;fill:#666666;width:95px;text-overflow:clip;" text-anchor="middle" transform="translate(0,0)" y="364" opacity="1"><tspan>200</tspan></text><text x="579.56640625" style="color:#666666;cursor:default;font-size:11px;fill:#666666;width:95px;text-overflow:clip;" text-anchor="middle" transform="translate(0,0)" y="364" opacity="1"><tspan>250</tspan></text></g><g class="highcharts-axis-labels highcharts-yaxis-labels "><text x="48" style="color:#666666;cursor:default;font-size:11px;fill:#666666;width:188px;text-overflow:clip;" text-anchor="end" transform="translate(0,0)" y="350" opacity="1"><tspan>0</tspan></text><text x="48" style="color:#666666;cursor:default;font-size:11px;fill:#666666;width:188px;text-overflow:clip;" text-anchor="end" transform="translate(0,0)" y="290" opacity="1"><tspan>10</tspan></text><text x="48" style="color:#666666;cursor:default;font-size:11px;fill:#666666;width:188px;text-overflow:clip;" text-anchor="end" transform="translate(0,0)" y="230" opacity="1"><tspan>20</tspan></text><text x="48" style="color:#666666;cursor:default;font-size:11px;fill:#666666;width:188px;text-overflow:clip;" text-anchor="end" transform="translate(0,0)" y="171" opacity="1"><tspan>30</tspan></text><text x="48" style="color:#666666;cursor:default;font-size:11px;fill:#666666;width:188px;text-overflow:clip;" text-anchor="end" transform="translate(0,0)" y="111" opacity="1"><tspan>40</tspan></text><text x="48" style="color:#666666;cursor:default;font-size:11px;fill:#666666;width:188px;text-overflow:clip;" text-anchor="end" transform="translate(0,0)" y="52" opacity="1"><tspan>50</tspan></text></g><text x="590" class="highcharts-credits" text-anchor="end" style="cursor:pointer;color:#999999;font-size:9px;fill:#999999;" y="395"><tspan>Created with MultiQC</tspan></text></svg>