<svg xmlns:xlink="http://www.w3.org/1999/xlink" version="1.1" class="highcharts-root" style="font-family:&quot;lucida grande&quot;, &quot;lucida sans unicode&quot;, arial, helvetica, sans-serif;font-size:12px;" xmlns="http://www.w3.org/2000/svg" width="600" height="400"><desc>Created with Highcharts 5.0.6</desc><defs><clipPath id="highcharts-plx1zr6-42"><rect x="0" y="0" width="527" height="298" fill="none"></rect></clipPath></defs><rect fill="#ffffff" class="highcharts-background" x="0" y="0" width="600" height="400" rx="0" ry="0"></rect><rect fill="none" class="highcharts-plot-background" x="63" y="47" width="527" height="298"></rect><g class="highcharts-plot-bands-0"><path fill="#c3e6c3" class="highcharts-plot-band " d="M 63 178.5 L 590 178.5 590 47.5 63 47.5 z"></path><path fill="#e6dcc3" class="highcharts-plot-band " d="M 63 226.5 L 590 226.5 590 178.5 63 178.5 z"></path><path fill="#e6c3c3" class="highcharts-plot-band " d="M 63 345.5 L 590 345.5 590 226.5 63 226.5 z"></path></g><g class="highcharts-grid highcharts-xaxis-grid "><path fill="none" class="highcharts-grid-line" d="M 66.5 47 L 66.5 345" opacity="1"></path><path fill="none" class="highcharts-grid-line" d="M 172.5 47 L 172.5 345" opacity="1"></path><path fill="none" class="highcharts-grid-line" d="M 277.5 47 L 277.5 345" opacity="1"></path><path fill="none" class="highcharts-grid-line" d="M 382.5 47 L 382.5 345" opacity="1"></path><path fill="none" class="highcharts-grid-line" d="M 488.5 47 L 488.5 345" opacity="1"></path></g><g class="highcharts-grid highcharts-yaxis-grid "><path fill="none" stroke="#e6e6e6" stroke-width="1" class="highcharts-grid-line" d="M 63 345.5 L 590 345.5" opacity="1"></path><path fill="none" stroke="#e6e6e6" stroke-width="1" class="highcharts-grid-line" d="M 63 285.5 L 590 285.5" opacity="1"></path><path fill="none" stroke="#e6e6e6" stroke-width="1" class="highcharts-grid-line" d="M 63 226.5 L 590 226.5" opacity="1"></path><path fill="none" stroke="#e6e6e6" stroke-width="1" class="highcharts-grid-line" d="M 63 166.5 L 590 166.5" opacity="1"></path><path fill="none" stroke="#e6e6e6" stroke-width="1" class="highcharts-grid-line" d="M 63 107.5 L 590 107.5" opacity="1"></path><path fill="none" stroke="#e6e6e6" stroke-width="1" class="highcharts-grid-line" d="M 63 46.5 L 590 46.5" opacity="1"></path></g><rect fill="none" class="highcharts-plot-border" x="63" y="47" width="527" height="298"></rect><g class="highcharts-axis highcharts-xaxis "><path fill="none" class="highcharts-tick" stroke="#ccd6eb" stroke-width="1" d="M 66.5 345 L 66.5 355" opacity="1"></path><path fill="none" class="highcharts-tick" stroke="#ccd6eb" stroke-width="1" d="M 172.5 345 L 172.5 355" opacity="1"></path><path fill="none" class="highcharts-tick" stroke="#ccd6eb" stroke-width="1" d="M 277.5 345 L 277.5 355" opacity="1"></path><path fill="none" class="highcharts-tick" stroke="#ccd6eb" stroke-width="1" d="M 382.5 345 L 382.5 355" opacity="1"></path><path fill="none" class="highcharts-tick" stroke="#ccd6eb" stroke-width="1" d="M 488.5 345 L 488.5 355" opacity="1"></path><text x="326.5" text-anchor="middle" transform="translate(0,0)" class="highcharts-axis-title" style="color:#666666;fill:#666666;" y="383"><tspan>Position (bp)</tspan></text><path fill="none" class="highcharts-axis-line" stroke="#ccd6eb" stroke-width="1" d="M 63 345.5 L 590 345.5"></path></g><g class="highcharts-axis highcharts-yaxis "><text x="24.0859375" text-anchor="middle" transform="translate(0,0) rotate(270 24.0859375 196)" class="highcharts-axis-title" style="color:#666666;fill:#666666;" y="196"><tspan>Phred Score</tspan></text><path fill="none" class="highcharts-axis-line" d="M 63 47 L 63 345"></path></g><g class="highcharts-series-group"><g class="highcharts-series highcharts-series-0 highcharts-line-series highcharts-color-undefined " transform="translate(63,47) scale(1 1)" width="298" height="527" clip-path="url(#highcharts-plx1zr6-42)"><path fill="none" d="M 5.1666666666667 104.51381911809719 L 6.2210884353742 99.88352184951117 L 7.2755102040816 99.32979203802734 L 8.3299319727891 100.56892345919084 L 9.3843537414966 99.77223932731951 L 10.438775510204 100.71594087037937 L 11.493197278912 103.27576081672339 L 12.547619047619 98.42697635895496 L 13.602040816327 106.81576837897691 L 18.874149659864 81.37501705108122 L 29.418367346939 72.30598512756802 L 39.962585034014 72.40510920254238 L 50.506802721088 72.92778292731231 L 61.051020408163 75.05458830731558 L 71.595238095238 76.8943770683664 L 82.139455782313 73.88696958893749 L 92.683673469388 74.64406633176682 L 103.22789115646 71.52600947082232 L 113.77210884354 77.35135439961113 L 124.31632653061 79.9401271178811 L 134.86054421769 83.52149271682967 L 145.40476190476 82.43680469579937 L 155.94897959184 84.75346943996465 L 166.49319727891 84.46267010925652 L 177.03741496599 86.92042998432689 L 187.58163265306 88.31996541101441 L 198.12585034014 92.2396781783134 L 208.67006802721 74.2319460257981 L 219.21428571429 71.69255739713194 L 229.75850340136 64.73989334870649 L 240.30272108844 62.30424948477011 L 250.84693877551 62.245019781645226 L 261.39115646259 62.115438691312704 L 271.93537414966 81.50018138579611 L 282.47959183673 88.15677101574605 L 293.02380952381 81.81270932872121 L 303.56802721088 80.72921255359779 L 314.11224489796 80.70536006713021 L 324.65646258503 79.40864272715811 L 335.20068027211 76.97613671825735 L 345.74489795918 76.67580108466518 L 356.28911564626 76.48663087151581 L 366.83333333333 75.29386843480296 L 377.37755102041 77.80852431487725 L 387.92176870748 78.30332426442769 L 398.46598639456 78.08261494387492 L 409.01020408163 77.26382700761988 L 419.55442176871 78.47599654054054 L 430.09863945578 76.826363821934 L 440.64285714286 76.50110352028835 L 451.18707482993 77.967429147372 L 461.73129251701 88.93714010249897 L 472.27551020408 84.1298098582024 L 482.81972789116 92.5443920447905 L 493.36394557823 123.04964760627814 L 503.90816326531 178.8023550006272 L 514.45238095238 125.84826214689264 L 520.77891156463 101.32" class="highcharts-graph" stroke="#5cb85c" stroke-width="2" stroke-linejoin="round" stroke-linecap="round"></path></g><g class="highcharts-markers highcharts-series-0 highcharts-line-series highcharts-color-undefined " transform="translate(63,47) scale(1 1)" width="298" height="527" clip-path="none"></g><g class="highcharts-series highcharts-series-1 highcharts-line-series highcharts-color-undefined " transform="translate(63,47) scale(1 1)" width="298" height="527" clip-path="url(#highcharts-plx1zr6-42)"><path fill="none" d="M 5.1666666666667 101.42361919981062 L 6.2210884353742 101.54099550189395 L 7.2755102040816 101.38860913825758 L 8.3299319727891 102.4305332623106 L 9.3843537414966 100.8141619318182 L 10.438775510204 101.85352864583331 L 11.493197278912 103.74354285037876 L 12.547619047619 99.3567909564394 L 13.602040816327 107.98258226799243 L 18.874149659864 81.79277219460229 L 29.418367346939 72.77090861742428 L 39.962585034014 73.69558871922351 L 50.506802721088 74.70968998579548 L 61.051020408163 77.66840175189395 L 71.595238095238 79.56518868371211 L 82.139455782313 75.99867755681817 L 92.683673469388 78.55062884706439 L 103.22789115646 74.66132848011367 L 113.77210884354 79.8379585108901 L 124.31632653061 82.40614494554922 L 134.86054421769 84.88893152225378 L 145.40476190476 85.10028823390152 L 155.94897959184 86.80265542868068 L 166.49319727891 86.14160857020255 L 177.03741496599 89.5250944764216 L 187.58163265306 88.34413559622985 L 198.12585034014 90.30210887353331 L 208.67006802721 81.99392944218906 L 219.21428571429 81.27382849293642 L 229.75850340136 70.90256971634042 L 240.30272108844 62.362557582752544 L 250.84693877551 62.56902028676697 L 261.39115646259 63.16203062991082 L 271.93537414966 86.73521918882525 L 282.47959183673 89.32584063568163 L 293.02380952381 88.7708283282154 L 303.56802721088 84.91377271382066 L 314.11224489796 82.23557382978106 L 324.65646258503 81.79187314084444 L 335.20068027211 82.05614852525491 L 345.74489795918 78.44106554587026 L 356.28911564626 77.99588244819205 L 366.83333333333 77.56310268478231 L 377.37755102041 78.26034135511941 L 387.92176870748 78.22552593417325 L 398.46598639456 78.6050243248597 L 409.01020408163 79.24523231306617 L 419.55442176871 80.72137671203754 L 430.09863945578 78.39085327768154 L 440.64285714286 78.29974565423655 L 451.18707482993 79.78720826888014 L 461.73129251701 84.28166069137629 L 472.27551020408 79.47988267369706 L 482.81972789116 89.79052942083015 L 493.36394557823 116.24195563419482 L 503.90816326531 176.18536843976165 L 514.45238095238 183.49920166056165 L 521.83333333333 202.64" class="highcharts-graph" stroke="#5cb85c" stroke-width="2" stroke-linejoin="round" stroke-linecap="round"></path></g><g class="highcharts-markers highcharts-series-1 highcharts-line-series highcharts-color-undefined " transform="translate(63,47) scale(1 1)" width="298" height="527" clip-path="none"></g><g class="highcharts-series highcharts-series-2 highcharts-line-series highcharts-color-undefined " transform="translate(63,47) scale(1 1)" width="298" height="527" clip-path="url(#highcharts-plx1zr6-42)"><path fill="none" d="M 5.1666666666667 104.01568191138449 L 6.2210884353742 101.72796006062228 L 7.2755102040816 100.05531318534369 L 8.3299319727891 100.49982918783991 L 9.3843537414966 99.32291914059016 L 10.438775510204 99.09678238388159 L 11.493197278912 100.9483833467059 L 12.547619047619 97.28641312293843 L 13.602040816327 106.52497102612105 L 18.874149659864 81.41286675581705 L 29.418367346939 72.53814674155299 L 39.962585034014 73.28438741196399 L 50.506802721088 73.75552336631901 L 61.051020408163 77.19905058393508 L 71.595238095238 78.47749901043062 L 82.139455782313 74.77776139787824 L 92.683673469388 77.65535162699473 L 103.22789115646 73.83808241062675 L 113.77210884354 78.51790182758307 L 124.31632653061 81.4543109922439 L 134.86054421769 84.38499235089597 L 145.40476190476 84.27828938218778 L 155.94897959184 86.17156836943923 L 166.49319727891 85.0530785580236 L 177.03741496599 88.78848470151914 L 187.58163265306 88.03997781898585 L 198.12585034014 90.15565879751802 L 208.67006802721 82.32732993367097 L 219.21428571429 81.61785571642537 L 229.75850340136 71.4645912559732 L 240.30272108844 61.96190664003993 L 250.84693877551 62.0834785678625 L 261.39115646259 62.49245545966764 L 271.93537414966 84.12917680621925 L 282.47959183673 86.56868553512624 L 293.02380952381 86.78005698696572 L 303.56802721088 83.38486657275826 L 314.11224489796 80.72680921379828 L 324.65646258503 80.75283310738493 L 335.20068027211 81.29447442026398 L 345.74489795918 77.46442545456375 L 356.28911564626 76.9885235385411 L 366.83333333333 76.00273186221168 L 377.37755102041 77.67630989885296 L 387.92176870748 76.94981229819646 L 398.46598639456 76.74318805209884 L 409.01020408163 77.62438561438557 L 419.55442176871 79.89187769373484 L 430.09863945578 78.17281704010276 L 440.64285714286 77.44397340909774 L 451.18707482993 79.17761861105001 L 461.73129251701 83.1428540532572 L 472.27551020408 78.30479777737713 L 482.81972789116 88.26732418708721 L 493.36394557823 113.26578525826011 L 503.90816326531 177.44842263371535 L 514.45238095238 186.1560153846154 L 521.83333333333 202.64" class="highcharts-graph" stroke="#5cb85c" stroke-width="2" stroke-linejoin="round" stroke-linecap="round"></path></g><g class="highcharts-markers highcharts-series-2 highcharts-line-series highcharts-color-undefined " transform="translate(63,47) scale(1 1)" width="298" height="527" clip-path="none"></g><g class="highcharts-series highcharts-series-3 highcharts-line-series highcharts-color-undefined " transform="translate(63,47) scale(1 1)" width="298" height="527" clip-path="url(#highcharts-plx1zr6-42)"><path fill="none" d="M 5.1666666666667 104.74826660096096 L 6.2210884353742 102.3755008007885 L 7.2755102040816 100.52910866083528 L 8.3299319727891 101.01757607490453 L 9.3843537414966 99.73876801774054 L 10.438775510204 99.41413268448932 L 11.493197278912 101.50191326844893 L 12.547619047619 97.5615911050881 L 13.602040816327 106.76656769742516 L 18.874149659864 81.4932710360971 L 29.418367346939 72.76650973265984 L 39.962585034014 71.9696525194037 L 50.506802721088 73.23784132068496 L 61.051020408163 74.63383750153997 L 71.595238095238 76.81734741899717 L 82.139455782313 73.51798041148209 L 92.683673469388 76.24276031785143 L 103.22789115646 72.57270142909942 L 113.77210884354 78.82858124922998 L 124.31632653061 80.46631237472724 L 134.86054421769 84.5841804881805 L 145.40476190476 84.26071499191502 L 155.94897959184 86.36175614310267 L 166.49319727891 85.3327915113808 L 177.03741496599 88.89760285828683 L 187.58163265306 89.8411578525888 L 198.12585034014 93.12137906181667 L 208.67006802721 77.15227067483903 L 219.21428571429 75.90697083192163 L 229.75850340136 66.04379221979241 L 240.30272108844 62.31746591924107 L 250.84693877551 62.13733507696679 L 261.39115646259 62.34904219799171 L 271.93537414966 83.43480478038563 L 282.47959183673 87.06333524302352 L 293.02380952381 84.99397646768927 L 303.56802721088 84.16610996119016 L 314.11224489796 83.04801565336018 L 324.65646258503 80.35742247966479 L 335.20068027211 79.15252224550159 L 345.74489795918 76.34785525018489 L 356.28911564626 77.25428721962041 L 366.83333333333 76.90791822775446 L 377.37755102041 77.2409170156912 L 387.92176870748 78.04565414182497 L 398.46598639456 79.25914318310876 L 409.01020408163 77.96441183176711 L 419.55442176871 78.32696089970733 L 430.09863945578 77.29649884455404 L 440.64285714286 75.58776668296986 L 451.18707482993 78.19514949766577 L 461.73129251701 87.63607763870343 L 472.27551020408 82.51572974594836 L 482.81972789116 92.71881310155814 L 493.36394557823 124.7266050181149 L 503.90816326531 184.42592203361747 L 514.45238095238 150.4540507936508" class="highcharts-graph" stroke="#5cb85c" stroke-width="2" stroke-linejoin="round" stroke-linecap="round"></path></g><g class="highcharts-markers highcharts-series-3 highcharts-line-series highcharts-color-undefined " transform="translate(63,47) scale(1 1)" width="298" height="527" clip-path="none"></g><g class="highcharts-series highcharts-series-4 highcharts-line-series highcharts-color-undefined " transform="translate(63,47) scale(1 1)" width="298" height="527" clip-path="url(#highcharts-plx1zr6-42)"><path fill="none" d="M 5.1666666666667 103.88629406433355 L 6.2210884353742 101.40936540999505 L 7.2755102040816 99.72042549808398 L 8.3299319727891 100.31243580162501 L 9.3843537414966 99.09647866944394 L 10.438775510204 98.75361116852966 L 11.493197278912 100.52433511949246 L 12.547619047619 97.09310139765628 L 13.602040816327 106.13142230207819 L 18.874149659864 81.20340080456666 L 29.418367346939 72.66091103655532 L 39.962585034014 71.45132225596663 L 50.506802721088 72.94241681639662 L 61.051020408163 73.64708550044611 L 71.595238095238 76.25908608681829 L 82.139455782313 72.42187527428842 L 92.683673469388 75.22379551598027 L 103.22789115646 72.30789702655431 L 113.77210884354 78.63253833677854 L 124.31632653061 79.27934585153591 L 134.86054421769 83.55251112277188 L 145.40476190476 82.91294528454895 L 155.94897959184 85.29596915199801 L 166.49319727891 83.9871533431128 L 177.03741496599 88.17072452890199 L 187.58163265306 88.66152881806971 L 198.12585034014 91.7198147417495 L 208.67006802721 73.89708089884064 L 219.21428571429 73.40677253860471 L 229.75850340136 65.77241640559151 L 240.30272108844 63.22350385034204 L 250.84693877551 62.65620791535383 L 261.39115646259 62.94855562447319 L 271.93537414966 88.51407121841058 L 282.47959183673 92.26581808928543 L 293.02380952381 90.88351174515324 L 303.56802721088 90.12482669338547 L 314.11224489796 89.07665254731518 L 324.65646258503 84.82834067734598 L 335.20068027211 83.93126753088458 L 345.74489795918 79.07335454404776 L 356.28911564626 81.23142183547833 L 366.83333333333 81.1661814479566 L 377.37755102041 80.40017199897378 L 387.92176870748 81.59709445154982 L 398.46598639456 83.15300859106529 L 409.01020408163 81.56746805396457 L 419.55442176871 82.08032047855411 L 430.09863945578 80.78368671248566 L 440.64285714286 77.71549471808578 L 451.18707482993 80.75919473081328 L 461.73129251701 92.64385319958927 L 472.27551020408 83.754167305718 L 482.81972789116 95.84420995375422 L 493.36394557823 124.69223139095214 L 503.90816326531 175.7581386385511 L 514.45238095238 163.1225339105339" class="highcharts-graph" stroke="#5cb85c" stroke-width="2" stroke-linejoin="round" stroke-linecap="round"></path></g><g class="highcharts-markers highcharts-series-4 highcharts-line-series highcharts-color-undefined " transform="translate(63,47) scale(1 1)" width="298" height="527" clip-path="none"></g><g class="highcharts-series highcharts-series-5 highcharts-line-series highcharts-color-undefined " transform="translate(63,47) scale(1 1)" width="298" height="527" clip-path="url(#highcharts-plx1zr6-42)"><path fill="none" d="M 5.1666666666667 101.81037217856547 L 6.2210884353742 101.89915933790337 L 7.2755102040816 101.71231767263001 L 8.3299319727891 102.82539575321854 L 9.3843537414966 101.09529175723122 L 10.438775510204 102.39351747199464 L 11.493197278912 104.24479451596721 L 12.547619047619 99.73917003845511 L 13.602040816327 108.77822103327202 L 18.874149659864 81.66619996656078 L 29.418367346939 72.77792770439723 L 39.962585034014 72.43069118876446 L 50.506802721088 73.35252312322356 L 61.051020408163 74.60965363651559 L 71.595238095238 77.09487697709409 L 82.139455782313 73.82738993479344 L 92.683673469388 76.12877104163184 L 103.22789115646 72.73589580337733 L 113.77210884354 78.93353847182746 L 124.31632653061 81.32760300953021 L 134.86054421769 84.47054887142616 L 145.40476190476 84.7791315833473 L 155.94897959184 85.92112629573643 L 166.49319727891 85.63257841317616 L 177.03741496599 88.40445427639833 L 187.58163265306 89.07147001086867 L 198.12585034014 92.8718183429479 L 208.67006802721 79.42775052253154 L 219.21428571429 78.61800571858538 L 229.75850340136 67.11704439428141 L 240.30272108844 62.26760451467263 L 250.84693877551 62.283340389599545 L 261.39115646259 62.346134403477976 L 271.93537414966 82.23912054176071 L 282.47959183673 86.47049631301732 L 293.02380952381 83.25904894136602 L 303.56802721088 81.71226574362063 L 314.11224489796 81.52612660389022 L 324.65646258503 79.5693643312315 L 335.20068027211 78.4446210506949 L 345.74489795918 76.7858811487063 L 356.28911564626 76.13339028918361 L 366.83333333333 76.41353192058739 L 377.37755102041 76.70359336485379 L 387.92176870748 77.84812878838565 L 398.46598639456 78.14544095805181 L 409.01020408163 77.1447873820834 L 419.55442176871 78.87447910953736 L 430.09863945578 77.20937909579007 L 440.64285714286 75.78474899225586 L 451.18707482993 77.70991861106924 L 461.73129251701 85.74266365795987 L 472.27551020408 80.96181289884677 L 482.81972789116 91.75253405922234 L 493.36394557823 118.08806671691664 L 503.90816326531 180.6031333711853 L 514.45238095238 189.93176634920633" class="highcharts-graph" stroke="#5cb85c" stroke-width="2" stroke-linejoin="round" stroke-linecap="round"></path></g><g class="highcharts-markers highcharts-series-5 highcharts-line-series highcharts-color-undefined " transform="translate(63,47) scale(1 1)" width="298" height="527" clip-path="none"></g><g class="highcharts-series highcharts-series-6 highcharts-line-series highcharts-color-undefined " transform="translate(63,47) scale(1 1)" width="298" height="527" clip-path="url(#highcharts-plx1zr6-42)"><path fill="none" d="M 5.1666666666667 102.84313772775991 L 6.2210884353742 100.4971463022508 L 7.2755102040816 100.61252947481245 L 8.3299319727891 102.14005894962486 L 9.3843537414966 100.06962968917469 L 10.438775510204 99.50884351554129 L 11.493197278912 101.22274276527332 L 12.547619047619 97.86481296891748 L 13.602040816327 106.60662540192928 L 18.874149659864 81.25647926045016 L 29.418367346939 72.43232556270095 L 39.962585034014 71.82921891747054 L 50.506802721088 72.81550948553055 L 61.051020408163 73.92078445873528 L 71.595238095238 76.31251393354768 L 82.139455782313 73.14206382636655 L 92.683673469388 75.19128494105041 L 103.22789115646 72.14597566988209 L 113.77210884354 78.137157073955 L 124.31632653061 80.2730712754555 L 134.86054421769 83.66990396570208 L 145.40476190476 83.73428697749193 L 155.94897959184 85.07183020918131 L 166.49319727891 84.77983146391793 L 177.03741496599 87.51391384046414 L 187.58163265306 88.4007348150281 L 198.12585034014 91.87155474560146 L 208.67006802721 78.28381374033532 L 219.21428571429 77.35450992268213 L 229.75850340136 66.5190291449475 L 240.30272108844 62.56314872633229 L 250.84693877551 62.49341959344474 L 261.39115646259 62.61220909322364 L 271.93537414966 86.06965323542417 L 282.47959183673 90.732608305305 L 293.02380952381 87.22177721200094 L 303.56802721088 85.59370458413179 L 314.11224489796 85.03785959445764 L 324.65646258503 83.0436705447137 L 335.20068027211 81.23594927207833 L 345.74489795918 78.75233262294424 L 356.28911564626 78.57193014499217 L 366.83333333333 78.30096791142802 L 377.37755102041 78.73689167091118 L 387.92176870748 79.8328337882254 L 398.46598639456 80.55435518539514 L 409.01020408163 79.11011640126537 L 419.55442176871 81.14455637767415 L 430.09863945578 79.45809463299557 L 440.64285714286 77.7763946241077 L 451.18707482993 79.51713064531131 L 461.73129251701 87.999482252315 L 472.27551020408 82.91352330161891 L 482.81972789116 94.00380767631933 L 493.36394557823 123.20680096563373 L 503.90816326531 180.70320246675988 L 514.45238095238 189.72728928229662 L 520.77891156463 202.64" class="highcharts-graph" stroke="#d9534f" stroke-width="2" stroke-linejoin="round" stroke-linecap="round"></path></g><g class="highcharts-markers highcharts-series-6 highcharts-line-series highcharts-color-undefined " transform="translate(63,47) scale(1 1)" width="298" height="527" clip-path="none"></g><g class="highcharts-series highcharts-series-7 highcharts-line-series highcharts-color-undefined " transform="translate(63,47) scale(1 1)" width="298" height="527" clip-path="url(#highcharts-plx1zr6-42)"><path fill="none" d="M 5.1666666666667 103.5089288999049 L 6.2210884353742 100.97122075168747 L 7.2755102040816 101.20163432009852 L 8.3299319727891 102.65992922726775 L 9.3843537414966 100.32104569050179 L 10.438775510204 99.73813652590064 L 11.493197278912 101.36245927450153 L 12.547619047619 98.02034762817817 L 13.602040816327 107.50298087265585 L 18.874149659864 81.37047735740228 L 29.418367346939 72.55692609393753 L 39.962585034014 72.67390743425463 L 50.506802721088 72.99252851954043 L 61.051020408163 75.54567354277935 L 71.595238095238 77.16290528028415 L 82.139455782313 74.21434252046109 L 92.683673469388 74.99468997767141 L 103.22789115646 71.76477369775887 L 113.77210884354 77.93282164385582 L 124.31632653061 80.88541640266473 L 134.86054421769 84.49133794209271 L 145.40476190476 83.35980565190906 L 155.94897959184 85.57546033996582 L 166.49319727891 85.43859345518948 L 177.03741496599 87.78624074026376 L 187.58163265306 89.22587177739106 L 198.12585034014 93.11742904326644 L 208.67006802721 74.15761132501936 L 219.21428571429 71.44866935673707 L 229.75850340136 65.18089611902701 L 240.30272108844 62.887958840585185 L 250.84693877551 62.87624857484806 L 261.39115646259 62.61707822303708 L 271.93537414966 84.36168251717368 L 282.47959183673 92.25031403823158 L 293.02380952381 84.70263261247433 L 303.56802721088 83.48714129566702 L 314.11224489796 83.24500586562291 L 324.65646258503 81.85783717986058 L 335.20068027211 79.03396550697849 L 345.74489795918 78.58553943514156 L 356.28911564626 78.05117483591019 L 366.83333333333 76.86338549743877 L 377.37755102041 79.58766765125532 L 387.92176870748 79.99653469937653 L 398.46598639456 79.90791991728548 L 409.01020408163 79.07155529715607 L 419.55442176871 80.23651610115246 L 430.09863945578 78.1264766649434 L 440.64285714286 77.73409910750021 L 451.18707482993 78.73879242611238 L 461.73129251701 90.8413805210264 L 472.27551020408 85.67693106691681 L 482.81972789116 93.91305955056657 L 493.36394557823 125.88252839972012 L 503.90816326531 183.3606748364358 L 514.45238095238 180.88221587301587 L 520.77891156463 202.64" class="highcharts-graph" stroke="#5cb85c" stroke-width="2" stroke-linejoin="round" stroke-linecap="round"></path></g><g class="highcharts-markers highcharts-series-7 highcharts-line-series highcharts-color-undefined " transform="translate(63,47) scale(1 1)" width="298" height="527" clip-path="none"></g><g class="highcharts-series highcharts-series-8 highcharts-line-series highcharts-color-undefined " transform="translate(63,47) scale(1 1)" width="298" height="527" clip-path="url(#highcharts-plx1zr6-42)"><path fill="none" d="M 5.1666666666667 103.85892639128411 L 6.2210884353742 99.6054660425392 L 7.2755102040816 99.10035640962468 L 8.3299319727891 100.19476061427278 L 9.3843537414966 99.52894911171336 L 10.438775510204 100.47912950644658 L 11.493197278912 102.95638553557254 L 12.547619047619 98.30027319263093 L 13.602040816327 106.46058361391695 L 18.874149659864 81.49923533437354 L 29.418367346939 72.3788984697928 L 39.962585034014 72.94655131258386 L 50.506802721088 73.9756224576387 L 61.051020408163 75.67979953460781 L 71.595238095238 78.4220032028031 L 82.139455782313 74.49563570167399 L 92.683673469388 77.04847286514013 L 103.22789115646 73.57457297326891 L 113.77210884354 79.54267343726477 L 124.31632653061 82.48910504920548 L 134.86054421769 83.04562242509684 L 145.40476190476 83.8736562598377 L 155.94897959184 86.17205075211123 L 166.49319727891 85.37819133438452 L 177.03741496599 88.40490188885852 L 187.58163265306 87.86027079113057 L 198.12585034014 90.26318029017244 L 208.67006802721 83.66888814672873 L 219.21428571429 82.8421400492746 L 229.75850340136 72.48717437722416 L 240.30272108844 62.78349329318365 L 250.84693877551 62.88937996167533 L 261.39115646259 63.79340574869968 L 271.93537414966 91.12166991513826 L 282.47959183673 93.60880744593487 L 293.02380952381 95.12260339447027 L 303.56802721088 89.63108256227761 L 314.11224489796 87.64088970991406 L 324.65646258503 84.78705040935353 L 335.20068027211 84.81849785055175 L 345.74489795918 82.38065461797984 L 356.28911564626 81.89589452008255 L 366.83333333333 81.6931585980285 L 377.37755102041 81.25311251604438 L 387.92176870748 80.84438798257403 L 398.46598639456 82.90626008939643 L 409.01020408163 83.2796179904598 L 419.55442176871 83.91412362872546 L 430.09863945578 80.61339051374745 L 440.64285714286 79.56437337759303 L 451.18707482993 80.99566900470424 L 461.73129251701 85.618600627462 L 472.27551020408 79.74128439651207 L 482.81972789116 90.68627469961382 L 493.36394557823 113.6230127215002 L 503.90816326531 181.2908613278534 L 514.45238095238 180.5433 L 521.83333333333 176.81333333333333" class="highcharts-graph" stroke="#5cb85c" stroke-width="2" stroke-linejoin="round" stroke-linecap="round"></path></g><g class="highcharts-markers highcharts-series-8 highcharts-line-series highcharts-color-undefined " transform="translate(63,47) scale(1 1)" width="298" height="527" clip-path="none"></g><g class="highcharts-series highcharts-series-9 highcharts-line-series highcharts-color-undefined " transform="translate(63,47) scale(1 1)" width="298" height="527" clip-path="url(#highcharts-plx1zr6-42)"><path fill="none" d="M 5.1666666666667 103.39862817120212 L 6.2210884353742 101.02638229524601 L 7.2755102040816 101.15537949102782 L 8.3299319727891 102.73622286293559 L 9.3843537414966 100.43796990402464 L 10.438775510204 99.87364640520292 L 11.493197278912 101.48909303948287 L 12.547619047619 98.09059757494373 L 13.602040816327 107.44312966546863 L 18.874149659864 81.5015660439459 L 29.418367346939 72.62764964387748 L 39.962585034014 72.72708105902029 L 50.506802721088 73.13598019932328 L 61.051020408163 75.4852906249589 L 71.595238095238 77.19627678818281 L 82.139455782313 74.15533473287823 L 92.683673469388 75.29503022802675 L 103.22789115646 72.03649776186211 L 113.77210884354 78.21556048238455 L 124.31632653061 81.02416614882301 L 134.86054421769 84.83642872189162 L 145.40476190476 83.70852798988886 L 155.94897959184 85.95854846852058 L 166.49319727891 85.80770757015131 L 177.03741496599 88.12377535783415 L 187.58163265306 89.3569223759925 L 198.12585034014 93.38251374969244 L 208.67006802721 75.38828258779844 L 219.21428571429 72.87926864276218 L 229.75850340136 65.14973545252235 L 240.30272108844 62.6845693893944 L 250.84693877551 62.659486548768086 L 261.39115646259 62.483098299996044 L 271.93537414966 83.64165159795107 L 282.47959183673 90.50145534033004 L 293.02380952381 83.86691057531505 L 303.56802721088 82.88269161585967 L 314.11224489796 82.59446849248786 L 324.65646258503 81.15172739726032 L 335.20068027211 78.40336037934671 L 345.74489795918 77.845101757485 L 356.28911564626 77.56741500810071 L 366.83333333333 76.26258802144389 L 377.37755102041 78.78734698823746 L 387.92176870748 79.21554496155682 L 398.46598639456 79.50823077835008 L 409.01020408163 78.31156745153092 L 419.55442176871 79.59495368565257 L 430.09863945578 77.91111058915195 L 440.64285714286 77.30405379700983 L 451.18707482993 78.58196495168235 L 461.73129251701 89.62013417208178 L 472.27551020408 85.28393170235654 L 482.81972789116 94.05554448521318 L 493.36394557823 124.72839305626144 L 503.90816326531 177.18964574478818 L 514.45238095238 149.8492313832509 L 520.77891156463 202.64" class="highcharts-graph" stroke="#d9534f" stroke-width="2" stroke-linejoin="round" stroke-linecap="round"></path></g><g class="highcharts-markers highcharts-series-9 highcharts-line-series highcharts-color-undefined " transform="translate(63,47) scale(1 1)" width="298" height="527" clip-path="none"></g></g><text x="330" text-anchor="middle" class="highcharts-title" style="color:#333333;font-size:18px;fill:#333333;width:536px;" y="24"><tspan>FastQC: Mean Quality Scores</tspan></text><g class="highcharts-axis-labels highcharts-xaxis-labels "><text x="67.11224489795919" style="color:#666666;cursor:default;font-size:11px;fill:#666666;width:122px;text-overflow:clip;" text-anchor="middle" transform="translate(0,0)" y="364" opacity="1"><tspan>0</tspan></text><text x="172.5544217687075" style="color:#666666;cursor:default;font-size:11px;fill:#666666;width:122px;text-overflow:clip;" text-anchor="middle" transform="translate(0,0)" y="364" opacity="1"><tspan>100</tspan></text><text x="277.9965986394558" style="color:#666666;cursor:default;font-size:11px;fill:#666666;width:122px;text-overflow:clip;" text-anchor="middle" transform="translate(0,0)" y="364" opacity="1"><tspan>200</tspan></text><text x="383.4387755102041" style="color:#666666;cursor:default;font-size:11px;fill:#666666;width:122px;text-overflow:clip;" text-anchor="middle" transform="translate(0,0)" y="364" opacity="1"><tspan>300</tspan></text><text x="488.8809523809524" style="color:#666666;cursor:default;font-size:11px;fill:#666666;width:122px;text-overflow:clip;" text-anchor="middle" transform="translate(0,0)" y="364" opacity="1"><tspan>400</tspan></text></g><g class="highcharts-axis-labels highcharts-yaxis-labels "><text x="48" style="color:#666666;cursor:default;font-size:11px;fill:#666666;width:188px;text-overflow:clip;" text-anchor="end" transform="translate(0,0)" y="350" opacity="1"><tspan>0</tspan></text><text x="48" style="color:#666666;cursor:default;font-size:11px;fill:#666666;width:188px;text-overflow:clip;" text-anchor="end" transform="translate(0,0)" y="290" opacity="1"><tspan>10</tspan></text><text x="48" style="color:#666666;cursor:default;font-size:11px;fill:#666666;width:188px;text-overflow:clip;" text-anchor="end" transform="translate(0,0)" y="230" opacity="1"><tspan>20</tspan></text><text x="48" style="color:#666666;cursor:default;font-size:11px;fill:#666666;width:188px;text-overflow:clip;" text-anchor="end" transform="translate(0,0)" y="171" opacity="1"><tspan>30</tspan></text><text x="48" style="color:#666666;cursor:default;font-size:11px;fill:#666666;width:188px;text-overflow:clip;" text-anchor="end" transform="translate(0,0)" y="111" opacity="1"><tspan>40</tspan></text><text x="48" style="color:#666666;cursor:default;font-size:11px;fill:#666666;width:188px;text-overflow:clip;" text-anchor="end" transform="translate(0,0)" y="52" opacity="1"><tspan>50</tspan></text></g><text x="590" class="highcharts-credits" text-anchor="end" style="cursor:pointer;color:#999999;font-size:9px;fill:#999999;" y="395"><tspan>Created with MultiQC</tspan></text></svg>